<svg width="21" height="19" viewBox="0 0 21 19" fill="none"
    xmlns="http://www.w3.org/2000/svg">
    <path d="M20.875 8.69792C20.875 7.84153 20.4057 7.10185 19.7153 6.7003V1.16008C19.7153 0.842973 19.4623 0 18.5556 0C18.2975 0 18.0413 0.0862543 17.8315 0.254414L14.7499 2.71991C13.202 3.95719 11.2587 4.63889 9.27778 4.63889H2.31944C1.03831 4.63889 0 5.6772 0 6.95833V10.4375C0 11.7186 1.03831 12.7569 2.31944 12.7569H3.54078C3.4904 13.1368 3.46177 13.5231 3.46177 13.9167C3.46177 15.358 3.79737 16.7199 4.3881 17.9373C4.57619 18.3247 4.98681 18.5556 5.41735 18.5556H8.10936C9.05344 18.5556 9.62026 17.4741 9.04801 16.7232C8.45365 15.9433 8.1003 14.9706 8.1003 13.9167C8.1003 13.514 8.15901 13.127 8.26012 12.7569H9.27778C11.2587 12.7569 13.202 13.4386 14.7495 14.6759L17.8311 17.1414C18.0366 17.3059 18.292 17.3956 18.5552 17.3958C19.4583 17.3958 19.7149 16.5703 19.7149 16.2361V10.6959C20.4057 10.294 20.875 9.5543 20.875 8.69792ZM17.3958 13.8232L16.1981 12.8649C14.241 11.2993 11.7828 10.4375 9.27778 10.4375V6.95833C11.7828 6.95833 14.241 6.09651 16.1981 4.53089L17.3958 3.57267V13.8232Z" fill="black"/>
</svg>
