<svg width="30" height="30" viewBox="0 0 30 30" fill="none"
    xmlns="http://www.w3.org/2000/svg">
    <path d="M12.7823 28.4629C19.5361 30.2406 26.4841 26.1262 28.3366 19.335C30.1891 12.5437 26.2663 5.56813 19.5124 3.79049C12.7586 2.01284 5.81063 6.12723 3.95813 12.9184C2.10563 19.7097 6.02843 26.6853 12.7823 28.4629Z" fill="#021024" fill-opacity="0.1"/>
    <path d="M11.9523 27.9511C18.8251 29.7601 25.9097 25.5745 27.8001 18.6442C29.6905 11.7139 25.6856 4.60948 18.8128 2.80053C11.94 0.99158 4.85544 5.1772 2.965 12.1075C1.07456 19.0378 5.07946 26.1422 11.9523 27.9511Z" fill="black" stroke="black" stroke-width="2"/>
    <path d="M11.1874 27.1997C18.0602 29.0086 25.1448 24.823 27.0353 17.8927C28.9257 10.9624 24.9208 3.85802 18.048 2.04907C11.1752 0.240115 4.09061 4.42573 2.20017 11.356C0.309727 18.2863 4.31463 25.3907 11.1874 27.1997Z" fill="black" stroke="black" stroke-width="2"/>
    <path d="M11.7814 25.0226C17.4369 26.5112 23.2585 23.0305 24.8191 17.3094C26.3798 11.5882 23.1098 5.71457 17.4543 4.226C11.7987 2.73743 5.9771 6.21818 4.4165 11.9393C2.8559 17.6604 6.12582 23.5341 11.7814 25.0226Z" fill="#4C4E57" stroke="#1E1D1C" stroke-width="2"/>
    <path fill-rule="evenodd" clip-rule="evenodd" d="M21.7162 7.93553C20.6656 7.01589 19.395 6.32089 17.9557 5.94205C12.8557 4.59972 7.5693 7.7351 6.14811 12.9451C5.231 16.3072 6.1476 19.7117 8.28368 22.0645C5.61173 19.7255 4.36318 15.9335 5.38327 12.1939C6.80446 6.98385 12.0909 3.84847 17.1908 5.1908C18.9997 5.6669 20.5422 6.64237 21.7162 7.93553Z" fill="#4C4E57"/>
    <path d="M13.5043 10.1421V19.1572H11.8544V10.1421H13.5043ZM15.5925 15.3218H13.0016V13.9898H15.5023C15.9577 13.9898 16.3057 13.883 16.5464 13.6692C16.787 13.4472 16.9073 13.1348 16.9073 12.7319C16.9073 12.3455 16.7827 12.0495 16.5335 11.844C16.2843 11.6384 15.9233 11.5357 15.4507 11.5357H12.9501V10.1421H15.5925C16.5292 10.1421 17.2639 10.36 17.7967 10.7957C18.3295 11.2315 18.5959 11.8275 18.5959 12.5839C18.5959 13.1266 18.4584 13.5829 18.1834 13.9528C17.9084 14.3146 17.5002 14.5777 16.9588 14.7421V14.5695C17.5432 14.701 17.9857 14.9477 18.2865 15.3094C18.5873 15.6712 18.7376 16.1398 18.7376 16.7153C18.7376 17.2251 18.6173 17.6649 18.3767 18.0349C18.1361 18.3967 17.7838 18.6762 17.3197 18.8735C16.8643 19.0626 16.3143 19.1572 15.6698 19.1572H12.9501V17.7636H15.5925C16.0651 17.7636 16.426 17.6567 16.6753 17.443C16.9245 17.2292 17.0491 16.9209 17.0491 16.518C17.0491 16.1398 16.9202 15.848 16.6624 15.6424C16.4132 15.4286 16.0565 15.3218 15.5925 15.3218Z" fill="black"/>
</svg>
