<svg width="48" height="48" viewBox="0 0 48 48" fill="none"
    xmlns="http://www.w3.org/2000/svg">
    <path d="M24 47.0107C36.7084 47.0107 47.0107 36.7084 47.0107 24C47.0107 11.2915 36.7084 0.989258 24 0.989258C11.2915 0.989258 0.989258 11.2915 0.989258 24C0.989258 36.7084 11.2915 47.0107 24 47.0107Z" fill="#33B3D8"/>
    <path d="M35.9636 26.7191V30.9513C35.9636 32.9447 34.3458 34.5625 32.3525 34.5625H15.6112C13.6178 34.5625 12 32.9447 12 30.9513V15.6112C12 13.6178 13.6178 12 15.6112 12H32.3525C34.3458 12 35.9636 13.6178 35.9636 15.6112V19.8434" fill="white"/>
    <path d="M27.5556 26.7924H34.7056C35.5001 26.7924 36.1501 26.1424 36.1501 25.3479V21.3612C36.1501 20.5668 35.5001 19.9167 34.7056 19.9167H27.5556C25.9666 19.9167 24.6666 21.2168 24.6666 22.8057V23.9035C24.6666 25.5068 25.9522 26.7924 27.5556 26.7924Z" stroke="#33B3D8" stroke-miterlimit="10" stroke-linecap="round" strokeLinejoin="round"/>
    <path fill-rule="evenodd" clip-rule="evenodd" d="M28.9091 25.4634L28 25.6694L30.5758 21L31.4091 22.3734L31.5606 22.03L31.9394 22.648L31.7121 23.06L33 25.2574H28.9848L28.9091 25.4634ZM30.5758 22.3733L29.3637 24.6394H30.1212L30.9546 23.06L30.5758 22.3733ZM30.8787 24.6393L31.3332 23.7466L31.8636 24.6393H30.8787Z" fill="#33B3D8"/>
</svg>
