<svg width="16" height="16" viewBox="0 0 16 16" fill="none"
    xmlns="http://www.w3.org/2000/svg">
    <path d="M13.3333 8.33333C13.1565 8.33333 12.987 8.40357 12.8619 8.5286C12.7369 8.65362 12.6667 8.82319 12.6667 9V13C12.6667 13.1768 12.5964 13.3464 12.4714 13.4714C12.3464 13.5964 12.1768 13.6667 12 13.6667H4C3.82319 13.6667 3.65362 13.5964 3.5286 13.4714C3.40357 13.3464 3.33333 13.1768 3.33333 13V5C3.33333 4.82319 3.40357 4.65362 3.5286 4.5286C3.65362 4.40357 3.82319 4.33333 4 4.33333H8C8.17681 4.33333 8.34638 4.2631 8.4714 4.13807C8.59643 4.01305 8.66667 3.84348 8.66667 3.66667C8.66667 3.48986 8.59643 3.32029 8.4714 3.19526C8.34638 3.07024 8.17681 3 8 3H4C3.46957 3 2.96086 3.21071 2.58579 3.58579C2.21071 3.96086 2 4.46957 2 5V13C2 13.5304 2.21071 14.0391 2.58579 14.4142C2.96086 14.7893 3.46957 15 4 15H12C12.5304 15 13.0391 14.7893 13.4142 14.4142C13.7893 14.0391 14 13.5304 14 13V9C14 8.82319 13.9298 8.65362 13.8047 8.5286C13.6797 8.40357 13.5101 8.33333 13.3333 8.33333Z" fill="#ED632B"/>
    <path d="M10.6668 4.33333H11.7201L7.52679 8.52C7.4643 8.58198 7.41471 8.65571 7.38086 8.73695C7.34702 8.81819 7.32959 8.90533 7.32959 8.99333C7.32959 9.08134 7.34702 9.16848 7.38086 9.24972C7.41471 9.33096 7.4643 9.40469 7.52679 9.46667C7.58876 9.52915 7.6625 9.57875 7.74374 9.61259C7.82498 9.64644 7.91211 9.66387 8.00012 9.66387C8.08813 9.66387 8.17527 9.64644 8.25651 9.61259C8.33775 9.57875 8.41148 9.52915 8.47346 9.46667L12.6668 5.28V6.33333C12.6668 6.51014 12.737 6.67971 12.8621 6.80474C12.9871 6.92976 13.1566 7 13.3335 7C13.5103 7 13.6798 6.92976 13.8049 6.80474C13.9299 6.67971 14.0001 6.51014 14.0001 6.33333V3.66667C14.0001 3.48986 13.9299 3.32029 13.8049 3.19526C13.6798 3.07024 13.5103 3 13.3335 3H10.6668C10.49 3 10.3204 3.07024 10.1954 3.19526C10.0704 3.32029 10.0001 3.48986 10.0001 3.66667C10.0001 3.84348 10.0704 4.01305 10.1954 4.13807C10.3204 4.2631 10.49 4.33333 10.6668 4.33333Z" fill="#ED632B"/>
</svg>
