<?xml version="1.0" encoding="UTF-8" ?>
<!DOCTYPE svg PUBLIC "-//W3C//DTD SVG 1.1//EN" "http://www.w3.org/Graphics/SVG/1.1/DTD/svg11.dtd">
<svg width="1273pt" height="445pt" viewBox="0 0 1273 445" version="1.1" xmlns="http://www.w3.org/2000/svg">
<g id="#000000ff">
<path fill="#000000" opacity="1.00" d=" M 851.14 3.44 C 872.47 -1.12 894.80 -0.56 916.09 3.99 C 938.69 8.85 959.30 21.06 975.43 37.48 C 964.18 50.42 952.96 63.38 941.72 76.34 C 931.10 66.76 919.22 58.16 905.60 53.43 C 887.91 47.27 867.69 47.57 850.72 55.83 C 834.55 63.58 822.11 78.10 815.88 94.80 C 805.33 122.97 810.56 157.41 831.59 179.47 C 844.66 193.40 863.94 200.93 882.97 200.05 C 896.58 199.79 910.14 195.99 921.70 188.75 C 929.54 183.96 936.61 178.04 943.40 171.88 C 954.66 183.24 965.93 194.59 977.15 205.98 C 966.10 217.88 953.49 228.58 938.94 235.94 C 920.81 245.23 900.24 248.91 879.99 248.89 C 859.04 249.25 837.96 244.45 819.43 234.63 C 795.08 221.88 775.56 200.32 765.06 174.94 C 748.34 134.81 752.97 85.96 778.64 50.59 C 795.80 26.53 822.29 9.59 851.14 3.44 Z" />
<path fill="#000000" opacity="1.00" d=" M 0.00 4.54 C 38.01 4.44 76.03 4.53 114.04 4.49 C 127.13 4.63 140.34 6.63 152.53 11.52 C 164.16 16.15 174.70 23.91 181.69 34.38 C 191.76 49.19 193.18 68.63 188.46 85.58 C 184.27 100.34 172.78 111.84 159.63 119.11 C 172.51 124.10 185.31 131.00 193.75 142.26 C 204.16 156.05 205.88 174.47 203.37 191.08 C 200.99 206.66 191.60 220.83 178.33 229.30 C 159.41 241.60 136.18 244.72 114.05 244.85 C 76.03 244.88 38.02 244.92 0.00 244.82 L 0.00 4.54 M 51.76 50.88 C 51.74 67.79 51.76 84.70 51.75 101.61 C 66.82 101.65 81.89 101.61 96.95 101.63 C 107.63 101.60 119.04 101.18 128.38 95.38 C 141.61 87.50 141.90 65.38 129.00 57.05 C 121.69 52.13 112.61 51.02 104.01 50.88 C 86.59 50.87 69.18 50.87 51.76 50.88 M 51.76 145.51 C 51.75 163.13 51.75 180.75 51.76 198.36 C 72.83 198.38 93.91 198.37 114.98 198.37 C 124.02 198.21 133.52 197.16 141.36 192.29 C 155.17 184.01 155.45 160.76 141.81 152.19 C 133.03 146.49 122.19 145.66 112.00 145.52 C 91.92 145.48 71.84 145.51 51.76 145.51 Z" />
<path fill="#000000" opacity="1.00" d=" M 282.25 4.51 C 299.91 4.49 317.58 4.49 335.24 4.51 C 335.27 68.55 335.23 132.58 335.26 196.62 C 375.17 196.63 415.08 196.62 454.99 196.63 C 455.00 212.67 455.01 228.71 454.99 244.75 C 397.41 244.75 339.83 244.76 282.25 244.75 C 282.24 164.67 282.25 84.59 282.25 4.51 Z" />
<path fill="#000000" opacity="1.00" d=" M 468.96 4.51 C 488.46 4.49 507.96 4.50 527.46 4.50 C 548.39 60.83 569.29 117.17 590.20 173.51 C 611.11 117.17 632.01 60.83 652.94 4.50 C 671.98 4.49 691.02 4.50 710.06 4.50 C 677.72 85.19 645.33 165.86 612.91 246.51 C 597.31 246.49 581.72 246.50 566.12 246.50 C 533.68 165.86 501.33 85.18 468.96 4.51 Z" />
<path fill="#000000" opacity="1.00" d=" M 1053.51 4.51 C 1071.17 4.49 1088.83 4.49 1106.50 4.51 C 1106.52 39.45 1106.47 74.39 1106.52 109.33 C 1138.96 74.39 1171.39 39.45 1203.83 4.50 C 1225.18 4.49 1246.54 4.51 1267.89 4.49 C 1235.32 38.50 1202.70 72.45 1170.09 106.42 C 1204.18 152.56 1238.24 198.72 1272.45 244.77 C 1251.16 244.71 1229.88 244.80 1208.61 244.72 C 1183.86 210.68 1159.04 176.68 1134.29 142.64 C 1124.96 152.14 1115.80 161.80 1106.52 171.35 C 1106.47 195.82 1106.53 220.28 1106.49 244.75 C 1088.83 244.75 1071.16 244.77 1053.50 244.74 C 1053.51 164.66 1053.49 84.58 1053.51 4.51 Z" />
<path fill="#000000" opacity="1.00" d=" M 546.58 369.38 C 550.93 369.36 555.28 369.36 559.64 369.38 C 571.36 393.96 583.05 418.54 594.77 443.12 C 589.78 443.13 584.79 443.13 579.80 443.12 C 577.08 437.26 574.41 431.39 571.72 425.52 C 559.20 425.48 546.69 425.50 534.17 425.51 C 531.42 431.37 528.73 437.26 525.96 443.12 C 521.13 443.12 516.30 443.13 511.47 443.11 C 523.15 418.52 534.88 393.96 546.58 369.38 M 539.37 413.99 C 548.42 414.00 557.46 414.01 566.51 413.99 C 561.96 404.36 557.46 394.70 552.87 385.09 C 548.36 394.72 543.86 404.35 539.37 413.99 Z" />
<path fill="#000000" opacity="1.00" d=" M 763.65 377.52 C 769.00 371.54 777.27 369.10 785.09 368.94 C 795.76 368.58 806.59 371.67 815.17 378.12 C 812.68 381.42 810.12 384.66 807.60 387.94 C 800.95 383.49 793.20 380.15 785.06 380.41 C 781.03 380.59 776.51 381.73 774.12 385.26 C 771.76 388.80 773.11 394.17 777.06 395.95 C 787.63 401.29 800.55 400.62 810.38 407.72 C 819.85 414.04 819.65 429.21 811.61 436.61 C 805.40 442.57 796.34 444.29 788.01 444.14 C 776.29 444.06 764.69 439.89 755.63 432.46 C 758.43 429.32 761.30 426.24 764.15 423.14 C 770.44 428.15 777.93 432.00 786.07 432.53 C 791.20 432.89 797.03 432.63 801.04 428.99 C 804.77 425.64 804.00 418.76 799.33 416.65 C 788.75 411.32 775.85 412.06 765.95 405.08 C 757.08 399.11 756.67 385.10 763.65 377.52 Z" />
<path fill="#000000" opacity="1.00" d=" M 438.88 369.88 C 449.61 369.88 460.34 369.84 471.06 369.90 C 479.50 370.02 488.48 372.23 494.53 378.45 C 500.82 384.80 502.23 394.89 499.26 403.12 C 496.74 410.10 490.39 415.00 483.53 417.33 C 473.73 420.84 463.18 419.28 453.01 419.63 C 452.98 427.46 453.02 435.29 452.99 443.12 C 448.29 443.13 443.58 443.13 438.88 443.12 C 438.87 418.71 438.87 394.29 438.88 369.88 M 453.01 381.76 C 452.99 390.46 453.00 399.17 453.01 407.87 C 458.68 407.87 464.36 407.89 470.04 407.87 C 475.40 407.84 481.26 406.02 484.41 401.40 C 488.43 395.57 486.10 386.37 479.37 383.69 C 471.02 380.28 461.76 382.30 453.01 381.76 Z" />
<path fill="#000000" opacity="1.00" d=" M 619.76 369.88 C 631.50 369.86 643.24 369.87 654.99 369.88 C 663.11 369.90 671.74 371.54 678.08 376.95 C 685.64 383.60 687.06 395.66 682.25 404.30 C 678.87 410.26 672.49 413.72 666.08 415.49 C 673.24 424.70 680.41 433.89 687.55 443.11 C 681.98 443.14 676.42 443.12 670.86 443.12 C 664.27 434.66 657.81 426.09 651.22 417.63 C 645.44 417.63 639.66 417.61 633.88 417.64 C 633.85 426.13 633.89 434.62 633.87 443.12 C 629.16 443.13 624.46 443.13 619.76 443.12 C 619.74 418.70 619.74 394.29 619.76 369.88 M 633.88 381.76 C 633.87 389.88 633.87 398.00 633.88 406.12 C 640.91 406.13 647.95 406.13 654.98 406.13 C 659.50 406.06 664.35 404.92 667.61 401.59 C 671.95 397.24 671.66 389.09 666.76 385.26 C 663.20 382.42 658.45 381.76 654.03 381.75 C 647.31 381.76 640.60 381.74 633.88 381.76 Z" />
<path fill="#000000" opacity="1.00" d=" M 714.25 369.88 C 718.96 369.87 723.66 369.87 728.37 369.88 C 728.38 394.29 728.38 418.71 728.37 443.12 C 723.66 443.13 718.96 443.13 714.25 443.12 C 714.24 418.70 714.24 394.29 714.25 369.88 Z" />
</g>
</svg>
