<svg width="23" height="20" viewBox="0 0 23 20" fill="none"
    xmlns="http://www.w3.org/2000/svg">
    <path fill-rule="evenodd" clip-rule="evenodd" d="M23 1.66667C23 1.22464 22.8269 0.800716 22.5188 0.488156C22.2107 0.175595 21.7929 0 21.3571 0H1.64286C1.20715 0 0.789274 0.175595 0.48118 0.488156C0.173084 0.800716 0 1.22464 0 1.66667C0 2.10869 0.173084 2.53262 0.48118 2.84518C0.789274 3.15774 1.20715 3.33333 1.64286 3.33333H21.3571C21.7929 3.33333 22.2107 3.15774 22.5188 2.84518C22.8269 2.53262 23 2.10869 23 1.66667ZM23 10C23 9.55797 22.8269 9.13405 22.5188 8.82149C22.2107 8.50893 21.7929 8.33333 21.3571 8.33333H1.64286C1.20715 8.33333 0.789274 8.50893 0.48118 8.82149C0.173084 9.13405 0 9.55797 0 10C0 10.442 0.173084 10.8659 0.48118 11.1785C0.789274 11.4911 1.20715 11.6667 1.64286 11.6667H21.3571C21.7929 11.6667 22.2107 11.4911 22.5188 11.1785C22.8269 10.8659 23 10.442 23 10ZM23 18.3333C23 17.8913 22.8269 17.4674 22.5188 17.1548C22.2107 16.8423 21.7929 16.6667 21.3571 16.6667H11.5C11.0643 16.6667 10.6464 16.8423 10.3383 17.1548C10.0302 17.4674 9.85714 17.8913 9.85714 18.3333C9.85714 18.7754 10.0302 19.1993 10.3383 19.5118C10.6464 19.8244 11.0643 20 11.5 20H21.3571C21.7929 20 22.2107 19.8244 22.5188 19.5118C22.8269 19.1993 23 18.7754 23 18.3333Z" fill="#EDECF4"/>
</svg>
