<svg width="201" height="186" viewBox="0 0 201 186" fill="none"
    xmlns="http://www.w3.org/2000/svg">
    <path d="M190.165 1L112.404 58.6898L126.846 24.6542L190.165 1Z" fill="#E17726" stroke="#E17726" stroke-width="0.712817" stroke-linecap="round" strokeLinejoin="round"/>
    <path d="M10.8354 1L87.8885 59.2358L74.1543 24.6542L10.8354 1Z" fill="#E27625" stroke="#E27625" stroke-width="0.712817" stroke-linecap="round" strokeLinejoin="round"/>
    <path d="M162.212 134.736L141.526 166.433L185.789 178.607L198.439 135.435L162.212 134.736Z" fill="#E27625" stroke="#E27625" stroke-width="0.712817" stroke-linecap="round" strokeLinejoin="round"/>
    <path d="M2.63794 135.435L15.211 178.607L59.4742 166.433L38.8652 134.736L2.63794 135.435Z" fill="#E27625" stroke="#E27625" stroke-width="0.712817" stroke-linecap="round" strokeLinejoin="round"/>
    <path d="M57.0519 81.1752L44.7173 99.8387L88.596 101.792L87.1118 54.5527L57.0519 81.1752Z" fill="#E27625" stroke="#E27625" stroke-width="0.712817" stroke-linecap="round" strokeLinejoin="round"/>
    <path d="M143.948 81.1753L113.419 54.0068L112.404 101.792L156.283 99.8388L143.948 81.1753Z" fill="#E27625" stroke="#E27625" stroke-width="0.712817" stroke-linecap="round" strokeLinejoin="round"/>
    <path d="M59.4741 166.434L85.9429 153.545L63.1422 135.751L59.4741 166.434Z" fill="#E27625" stroke="#E27625" stroke-width="0.712817" stroke-linecap="round" strokeLinejoin="round"/>
    <path d="M115.057 153.545L141.526 166.434L137.858 135.751L115.057 153.545Z" fill="#E27625" stroke="#E27625" stroke-width="0.712817" stroke-linecap="round" strokeLinejoin="round"/>
    <path d="M141.526 166.433L115.057 153.545L117.164 170.801L116.933 178.06L141.526 166.433Z" fill="#D5BFB2" stroke="#D5BFB2" stroke-width="0.712817" stroke-linecap="round" strokeLinejoin="round"/>
    <path d="M59.4741 166.433L84.0665 178.06L83.9127 170.801L85.9429 153.545L59.4741 166.433Z" fill="#D5BFB2" stroke="#D5BFB2" stroke-width="0.712817" stroke-linecap="round" strokeLinejoin="round"/>
    <path d="M84.5358 124.347L62.5195 117.872L78.0532 110.766L84.5358 124.347Z" fill="#233447" stroke="#233447" stroke-width="0.712817" stroke-linecap="round" strokeLinejoin="round"/>
    <path d="M116.464 124.347L122.947 110.766L138.558 117.872L116.464 124.347Z" fill="#233447" stroke="#233447" stroke-width="0.712817" stroke-linecap="round" strokeLinejoin="round"/>
    <path d="M59.4742 166.433L63.2961 134.736L38.8652 135.435L59.4742 166.433Z" fill="#CC6228" stroke="#CC6228" stroke-width="0.712817" stroke-linecap="round" strokeLinejoin="round"/>
    <path d="M137.704 134.736L141.526 166.433L162.212 135.435L137.704 134.736Z" fill="#CC6228" stroke="#CC6228" stroke-width="0.712817" stroke-linecap="round" strokeLinejoin="round"/>
    <path d="M156.283 99.8386L112.404 101.792L116.464 124.346L122.947 110.766L138.557 117.871L156.283 99.8386Z" fill="#CC6228" stroke="#CC6228" stroke-width="0.712817" stroke-linecap="round" strokeLinejoin="round"/>
    <path d="M62.5195 117.871L78.0531 110.766L84.5357 124.346L88.596 101.792L44.7173 99.8386L62.5195 117.871Z" fill="#CC6228" stroke="#CC6228" stroke-width="0.712817" stroke-linecap="round" strokeLinejoin="round"/>
    <path d="M44.7173 99.8386L63.1424 135.751L62.5195 117.871L44.7173 99.8386Z" fill="#E27525" stroke="#E27525" stroke-width="0.712817" stroke-linecap="round" strokeLinejoin="round"/>
    <path d="M138.557 117.871L137.858 135.751L156.283 99.8386L138.557 117.871Z" fill="#E27525" stroke="#E27525" stroke-width="0.712817" stroke-linecap="round" strokeLinejoin="round"/>
    <path d="M88.5959 101.792L84.5356 124.347L89.6879 150.969L90.7799 115.918L88.5959 101.792Z" fill="#E27525" stroke="#E27525" stroke-width="0.712817" stroke-linecap="round" strokeLinejoin="round"/>
    <path d="M112.404 101.792L110.297 115.841L111.312 150.969L116.464 124.347L112.404 101.792Z" fill="#E27525" stroke="#E27525" stroke-width="0.712817" stroke-linecap="round" strokeLinejoin="round"/>
    <path d="M116.464 124.347L111.312 150.969L115.057 153.545L137.858 135.751L138.557 117.872L116.464 124.347Z" fill="#F5841F" stroke="#F5841F" stroke-width="0.712817" stroke-linecap="round" strokeLinejoin="round"/>
    <path d="M62.5195 117.872L63.1424 135.751L85.943 153.545L89.688 150.969L84.5358 124.347L62.5195 117.872Z" fill="#F5841F" stroke="#F5841F" stroke-width="0.712817" stroke-linecap="round" strokeLinejoin="round"/>
    <path d="M116.933 178.06L117.164 170.801L115.218 169.086H85.7814L83.9127 170.801L84.0665 178.06L59.4741 166.433L68.0638 173.454L85.5507 185.558H115.449L132.936 173.454L141.526 166.433L116.933 178.06Z" fill="#C0AC9D" stroke="#C0AC9D" stroke-width="0.712817" stroke-linecap="round" strokeLinejoin="round"/>
    <path d="M115.057 153.545L111.312 150.969H89.688L85.943 153.545L83.9128 170.801L85.7815 169.086H115.219L117.164 170.801L115.057 153.545Z" fill="#161616" stroke="#161616" stroke-width="0.712817" stroke-linecap="round" strokeLinejoin="round"/>
    <path d="M193.441 62.4425L200 30.5908L190.165 1L115.057 56.7443L143.948 81.1751L184.774 93.1253L193.756 82.5824L189.849 79.7756L196.094 74.0697L191.333 70.3247L197.578 65.5646L193.441 62.4425Z" fill="#763E1A" stroke="#763E1A" stroke-width="0.712817" stroke-linecap="round" strokeLinejoin="round"/>
    <path d="M1 30.5908L7.63641 62.4425L3.42233 65.5646L9.66655 70.3247L4.90648 74.0697L11.1507 79.7756L7.24423 82.5824L16.2261 93.1253L57.0519 81.1751L85.9429 56.7443L10.8354 1L1 30.5908Z" fill="#763E1A" stroke="#763E1A" stroke-width="0.712817" stroke-linecap="round" strokeLinejoin="round"/>
    <path d="M184.774 93.1254L143.948 81.1753L156.283 99.8387L137.858 135.751L162.212 135.435H198.439L184.774 93.1254Z" fill="#F5841F" stroke="#F5841F" stroke-width="0.712817" stroke-linecap="round" strokeLinejoin="round"/>
    <path d="M57.0518 81.1753L16.226 93.1254L2.63794 135.435H38.8652L63.1423 135.751L44.7172 99.8387L57.0518 81.1753Z" fill="#F5841F" stroke="#F5841F" stroke-width="0.712817" stroke-linecap="round" strokeLinejoin="round"/>
    <path d="M112.404 101.792L115.057 56.7443L126.846 24.6543H74.1543L85.9429 56.7443L88.596 101.792L89.611 115.995L89.6879 150.969H111.312L111.389 115.995L112.404 101.792Z" fill="#F5841F" stroke="#F5841F" stroke-width="0.712817" stroke-linecap="round" strokeLinejoin="round"/>
</svg>
