<svg width="20" height="20" viewBox="0 0 20 20" fill="none"
    xmlns="http://www.w3.org/2000/svg">
    <path fill-rule="evenodd" clip-rule="evenodd" d="M5.15374 17.1202C5.86774 17.1202 6.44874 17.6953 6.44874 18.4032C6.44874 19.1111 5.86774 19.6871 5.15374 19.6871C4.43974 19.6871 3.85974 19.1111 3.85974 18.4032C3.85974 17.6953 4.43974 17.1202 5.15374 17.1202ZM16.434 17.1202C17.149 17.1202 17.73 17.6953 17.73 18.4032C17.73 19.1111 17.149 19.6871 16.434 19.6871C15.72 19.6871 15.14 19.1111 15.14 18.4032C15.14 17.6953 15.72 17.1202 16.434 17.1202ZM0.877945 0.322333L2.95794 0.679262C3.29294 0.737759 3.54794 1.01339 3.57694 1.35049L3.81194 4.12759L4.68579 4.12797C4.82839 4.12803 4.96948 4.12809 5.10907 4.12815L6.71337 4.12891C6.84125 4.12897 6.9677 4.12904 7.09273 4.1291L8.86413 4.13006C8.97541 4.13013 9.08536 4.13019 9.194 4.13026L10.4353 4.13104C10.5337 4.13111 10.6308 4.13118 10.7266 4.13124L11.8184 4.13204C11.9046 4.13211 11.9896 4.13217 12.0735 4.13224L13.0255 4.13305C13.1003 4.13312 13.1741 4.13319 13.2468 4.13326L13.8725 4.13387C13.9389 4.13394 14.0042 4.13401 14.0686 4.13408L14.7932 4.13491C14.8497 4.13498 14.9052 4.13505 14.9598 4.13512L15.5716 4.13597C15.619 4.13604 15.6656 4.13611 15.7113 4.13618L16.1001 4.13683C16.1409 4.1369 16.1808 4.13697 16.2199 4.13704L16.6531 4.13791C16.6862 4.13799 16.7186 4.13806 16.7503 4.13813L17.0168 4.13879C17.0444 4.13887 17.0713 4.13894 17.0976 4.13902L17.3834 4.13991C17.4048 4.13998 17.4257 4.14006 17.4459 4.14013L17.6137 4.14081C17.6308 4.14089 17.6473 4.14096 17.6634 4.14104L17.8331 4.14196C17.8454 4.14203 17.8573 4.14211 17.8688 4.14219L17.9613 4.14288C17.9704 4.14296 17.9792 4.14304 17.9876 4.14312L18.0542 4.14382C18.0606 4.1439 18.0668 4.14398 18.0726 4.14406L18.1179 4.14477C18.1222 4.14485 18.1262 4.14493 18.13 4.14501L18.1587 4.14573C18.1613 4.14581 18.1637 4.14589 18.166 4.14597L18.1868 4.14694L18.1903 4.14718C18.2001 4.14808 18.2029 4.14841 18.2029 4.14841C18.7599 4.22872 19.2499 4.51724 19.5839 4.96142C19.9179 5.4046 20.0579 5.95091 19.9779 6.4982L19.0289 13.0003C18.8499 14.2376 17.7659 15.1706 16.5059 15.1706H5.58494C4.26794 15.1706 3.15294 14.1513 3.04594 12.8476L2.12994 2.0465L0.622945 1.78872C0.213945 1.71733 -0.0590549 1.33363 0.0109451 0.928121C0.082945 0.52261 0.477945 0.258879 0.877945 0.322333ZM14.8978 7.79236C15.3118 7.79236 15.6478 8.12549 15.6478 8.53596C15.6478 8.94643 15.3118 9.27956 14.8978 9.27956H12.1258C11.7108 9.27956 11.3758 8.94643 11.3758 8.53596C11.3758 8.12549 11.7108 7.79236 12.1258 7.79236H14.8978Z" fill="#FFF"/>
</svg>
