<svg width="27" height="26" viewBox="0 0 27 26" fill="none" xmlns="http://www.w3.org/2000/svg">
<path d="M23.1424 22.0568C22.9935 22.8047 22.8165 23.2949 22.6142 23.4224C22.6063 23.4254 22.5988 23.4292 22.5917 23.4337C22.4107 23.524 22.2176 23.587 22.0185 23.6207C22.0045 23.6235 21.9932 23.6264 21.9792 23.6292C20.0804 23.9026 18.1617 24.0097 16.2446 23.9493C16.196 23.9522 16.1472 23.9522 16.0986 23.9493C13.984 23.9511 11.8717 23.8063 9.77685 23.5159H9.77405C9.24511 23.4739 8.73277 23.3101 8.27648 23.0371C8.22057 22.9761 8.1767 22.905 8.14722 22.8274C7.16946 20.6601 6.71712 5.67598 7.63869 4.80904C8.48999 4.01013 11.9234 3.65035 15.3652 3.60784H15.6378C19.2988 3.58232 22.8923 3.90814 23.325 4.43511C24.0499 5.3162 24.0022 17.8129 23.1424 22.0568Z" fill="#F37C83"/>
<path d="M21.9824 22.476C21.9368 22.829 21.7848 23.1593 21.5469 23.4223C21.336 23.5296 21.1092 23.6013 20.8754 23.6348C19.343 23.8664 17.7944 23.9716 16.245 23.9492C16.1964 23.9521 16.1476 23.9521 16.099 23.9492C12.8847 23.9691 9.19845 23.7481 7.75707 23.3033L7.75426 23.3005C7.55486 23.2537 7.36792 23.1638 7.20639 23.037C6.45618 22.3004 5.97011 14.0136 6.08253 8.85745V8.85179C6.1303 6.68733 6.28482 5.0753 6.5686 4.80896C7.50702 3.9251 11.5951 3.58224 15.3656 3.60776H15.6382C18.903 3.64744 21.8644 3.95906 22.2549 4.43503C23.0051 5.3473 22.9321 18.7137 21.9824 22.476Z" fill="#C72E5C"/>
<path d="M8.00098 4.1961C8.00098 4.1961 15.2531 2.85562 22.256 4.43503H23.3254C23.3254 4.43503 22.7626 3.76412 19.0594 3.49465C15.3588 3.22175 11.6385 3.45773 8.00098 4.1961Z" fill="#FEEDE3"/>
<path d="M22.6152 23.4226C22.6074 23.4256 22.5998 23.4294 22.5927 23.434C22.4075 23.5133 22.2157 23.5759 22.0195 23.6209C22.0055 23.6238 21.9943 23.6266 21.9802 23.6294C21.0951 23.8476 19.1312 24.1536 15.1865 24.0827C9.34518 23.9779 7.84761 23.3433 7.75769 23.3037L7.75488 23.3008C7.75488 23.3008 8.53597 23.4028 9.77506 23.5161H9.77786C12.1023 23.736 14.4365 23.8353 16.7711 23.8136C16.9846 23.8108 17.1897 23.8051 17.3892 23.7994C18.426 23.7768 19.2773 23.7399 19.9657 23.7002H19.9797C20.3169 23.6776 20.6147 23.6578 20.876 23.6351C21.4596 23.6015 22.0405 23.5305 22.6152 23.4226Z" fill="#CA306B"/>
<g style="mix-blend-mode:multiply" opacity="0.3">
<path d="M7.43749 5.29948C6.34874 5.9188 7.10688 15.5315 9.07658 18.5584C11.0463 21.5853 20.731 15.1197 21.9575 12.1526C23.184 9.1854 21.4805 5.32033 19.8834 4.43468C18.2863 3.54902 8.6199 4.62693 7.43749 5.29948Z" fill="#F7B5CA"/>
</g>
<g style="mix-blend-mode:overlay" opacity="0.3">
<path d="M12.9994 23.6963C10.2311 22.8917 20.8145 16.9345 21.73 16.5831C22.6456 16.2316 22.2269 22.4932 21.5615 23.3008C20.8961 24.1085 12.9994 23.6963 12.9994 23.6963Z" fill="white"/>
</g>
<g style="mix-blend-mode:multiply" opacity="0.8">
<path d="M22.7626 4.43506C22.4931 4.43506 22.9255 9.2126 22.7626 14.8489C22.5996 20.4853 22.3387 21.6125 22.6156 21.8272C22.8924 22.0419 23.9096 16.2056 23.83 11.8259C23.7504 7.44625 23.4656 4.70353 23.3254 4.62304C23.1433 4.54467 22.955 4.48179 22.7626 4.43506Z" fill="#E39AA9"/>
</g>
<g style="mix-blend-mode:multiply" opacity="0.8">
<path d="M23.1428 22.0567C22.9939 22.8046 22.8169 23.2948 22.6146 23.4223C22.6067 23.4253 22.5992 23.4291 22.5921 23.4336C22.4111 23.5238 22.218 23.5868 22.0189 23.6206C22.0049 23.6234 21.9936 23.6262 21.9796 23.6291C21.0945 23.8472 19.1306 24.1532 15.1858 24.0824C9.34456 23.9775 7.84699 23.3429 7.75707 23.3033L7.75426 23.3004C7.55486 23.2537 7.36792 23.1638 7.20639 23.037C6.45618 22.3004 5.97011 14.0136 6.08253 8.85742C6.14433 11.1012 6.43654 20.1416 7.13612 21.9207C7.3481 22.3405 7.7093 22.6643 8.14761 22.8273C9.23498 23.3429 11.0219 23.5979 12.955 23.6829C13.84 23.7197 14.7588 23.7226 15.6522 23.697C17.7666 23.5898 19.8565 23.1924 21.8644 22.5157C21.9037 22.5015 21.9431 22.4902 21.9824 22.476C22.6736 22.2465 23.1035 22.0737 23.1428 22.0567Z" fill="#F19AA9"/>
</g>
<path d="M17.3984 3.89447C15.8422 4.00619 17.116 5.85362 18.4469 6.55144C19.7778 7.24926 20.9736 4.83613 21.171 4.43514C21.3685 4.03414 18.3404 3.82684 17.3984 3.89447Z" fill="white"/>
<path d="M21.865 22.0568C21.7161 22.8047 21.5391 23.2949 21.3368 23.4224C21.329 23.4254 21.3215 23.4292 21.3144 23.4337C21.1334 23.524 20.9403 23.587 20.7412 23.6207C20.7271 23.6235 20.7159 23.6264 20.7018 23.6292C18.8031 23.9026 16.8844 24.0097 14.9673 23.9493C14.9187 23.9522 14.8699 23.9522 14.8212 23.9493C12.7066 23.9511 10.5944 23.8063 8.49951 23.5159H8.49666C7.96774 23.4739 7.45542 23.3101 6.99915 23.0371C6.94323 22.9761 6.89936 22.905 6.86988 22.8274C5.89213 20.6601 5.43979 5.67598 6.36131 4.80904C7.21266 4.01013 10.646 3.65035 14.0879 3.60784H14.3604C18.0214 3.58232 21.615 3.90814 22.0477 4.43511C22.7726 5.3162 22.7248 17.8129 21.865 22.0568Z" fill="#F37C83"/>
<path d="M20.7051 22.476C20.6595 22.829 20.5075 23.1593 20.2696 23.4223C20.0587 23.5295 19.8319 23.6013 19.5981 23.6348C18.0657 23.8664 16.5171 23.9716 14.9677 23.9492C14.9191 23.9521 14.8703 23.9521 14.8216 23.9492C11.6074 23.9691 7.92114 23.7481 6.47976 23.3033L6.47696 23.3005C6.27755 23.2537 6.09061 23.1638 5.92908 23.037C5.17888 22.3004 4.6928 14.0136 4.80518 8.85745V8.85179C4.85294 6.68733 5.00751 5.0753 5.29126 4.80896C6.22971 3.9251 10.3178 3.58224 14.0883 3.60776H14.3609C17.6257 3.64744 20.5871 3.95906 20.9776 4.43503C21.7278 5.3473 21.6547 18.7137 20.7051 22.476Z" fill="#F7A398"/>
<path d="M6.72363 4.1961C6.72363 4.1961 13.9758 2.85562 20.9786 4.43503H22.0481C22.0481 4.43503 21.4852 3.76412 17.7821 3.49465C14.0814 3.22175 10.3612 3.45773 6.72363 4.1961Z" fill="#FEEDE3"/>
<path d="M21.3378 23.4226C21.33 23.4257 21.3225 23.4294 21.3154 23.434C21.1302 23.5133 20.9384 23.5759 20.7422 23.6209C20.7281 23.6238 20.7169 23.6266 20.7028 23.6294C19.8178 23.8476 17.8539 24.1536 13.9091 24.0827C8.06777 23.9779 6.57026 23.3433 6.48035 23.3037L6.47754 23.3008C6.47754 23.3008 7.25862 23.4028 8.49766 23.5161H8.50052C10.825 23.736 13.1591 23.8353 15.4937 23.8136C15.7072 23.8108 15.9124 23.8051 16.1119 23.7994C17.1486 23.7768 18 23.7399 18.6883 23.7002H18.7024C19.0395 23.6776 19.3373 23.6578 19.5987 23.6351C20.1823 23.6015 20.7632 23.5305 21.3378 23.4226Z" fill="#CA306B"/>
<g style="mix-blend-mode:multiply" opacity="0.3">
<path d="M6.16113 5.29948C5.07238 5.9188 5.83051 15.5315 7.80021 18.5584C9.76991 21.5853 19.4546 15.1197 20.6811 12.1526C21.9077 9.1854 20.2041 5.32033 18.607 4.43468C17.01 3.54902 7.34354 4.62693 6.16113 5.29948Z" fill="#F7B5CA"/>
</g>
<g style="mix-blend-mode:overlay" opacity="0.3">
<path d="M11.7221 23.6963C8.95379 22.8917 19.5371 16.9345 20.4527 16.5831C21.3682 16.2316 20.9495 22.4932 20.2841 23.3008C19.6187 24.1085 11.7221 23.6963 11.7221 23.6963Z" fill="white"/>
</g>
<g style="mix-blend-mode:multiply" opacity="0.8">
<path d="M21.4852 4.43506C21.2158 4.43506 21.6481 9.2126 21.4852 14.8489C21.3223 20.4853 21.0614 21.6125 21.3382 21.8272C21.6151 22.0419 22.6323 16.2056 22.5526 11.8259C22.473 7.44625 22.1882 4.70353 22.048 4.62304C21.866 4.54467 21.6777 4.48179 21.4852 4.43506Z" fill="#E39AA9"/>
</g>
<g style="mix-blend-mode:multiply" opacity="0.8">
<path d="M21.8655 22.0567C21.7166 22.8046 21.5395 23.2948 21.3372 23.4223C21.3294 23.4253 21.3219 23.4291 21.3148 23.4336C21.1338 23.5238 20.9407 23.5868 20.7416 23.6206C20.7276 23.6234 20.7163 23.6262 20.7023 23.6291C19.8172 23.8472 17.8533 24.1532 13.9085 24.0824C8.06719 23.9775 6.56968 23.3429 6.47976 23.3033L6.47696 23.3004C6.27755 23.2537 6.09061 23.1638 5.92908 23.037C5.17888 22.3004 4.6928 14.0136 4.80518 8.85742C4.86702 11.1012 5.15923 20.1416 5.85882 21.9207C6.07079 22.3405 6.43199 22.6643 6.8703 22.8273C7.95763 23.3429 9.74458 23.5979 11.6776 23.6829C12.5627 23.7197 13.4814 23.7226 14.3749 23.697C16.4893 23.5898 18.5792 23.1924 20.5871 22.5157C20.6264 22.5015 20.6657 22.4902 20.7051 22.476C21.3962 22.2465 21.8261 22.0737 21.8655 22.0567Z" fill="#F19AA9"/>
</g>
<path d="M16.121 3.89447C14.5649 4.00619 15.8386 5.85362 17.1695 6.55144C18.5005 7.24926 19.6962 4.83613 19.8936 4.43514C20.0911 4.03414 17.063 3.82684 16.121 3.89447Z" fill="white"/>
<g style="mix-blend-mode:multiply" opacity="0.78">
<path d="M5.43478 21.3209C5.43478 21.3209 11.0278 22.7051 15.6628 22.5955C20.7048 22.4762 20.7947 21.3658 21.0994 18.9936C21.3005 17.4277 21.4138 7.39027 21.2924 5.9127C21.171 4.43513 20.6573 4.30127 20.6573 4.30127L5.33496 20.736L5.43478 21.3209Z" fill="#CD2F55"/>
</g>
<path d="M20.201 21.756C20.0521 22.504 19.8751 22.9941 19.6728 23.1216C19.6649 23.1246 19.6574 23.1284 19.6503 23.1329C19.4693 23.2232 19.2762 23.2862 19.0772 23.3199C19.0631 23.3227 19.0519 23.3256 19.0378 23.3284C17.139 23.6018 15.2204 23.7089 13.3033 23.6486C13.2546 23.6514 13.2058 23.6514 13.1572 23.6486C11.0426 23.6504 8.93034 23.5055 6.83544 23.2151H6.83263C6.3037 23.1731 5.79137 23.0093 5.33507 22.7363C5.27916 22.6753 5.23529 22.6042 5.20581 22.5267C4.22805 20.3594 3.77571 5.37519 4.69728 4.50831C5.5486 3.70934 8.98201 3.34956 12.4239 3.30706H12.6964C16.3573 3.28158 19.9509 3.60736 20.3836 4.13432C21.1085 5.01541 21.0607 17.5121 20.201 21.756Z" fill="#F37C83"/>
<path d="M19.041 22.1753C18.9954 22.5282 18.8434 22.8585 18.6055 23.1215C18.3947 23.2288 18.1678 23.3005 17.934 23.334C16.4016 23.5657 14.853 23.6709 13.3037 23.6485C13.255 23.6513 13.2062 23.6513 13.1576 23.6485C9.94333 23.6683 6.25704 23.4473 4.81566 23.0025L4.81286 22.9997C4.61346 22.9529 4.42652 22.863 4.26498 22.7362C3.51483 21.9996 3.0287 13.7129 3.14113 8.55667V8.55101C3.18889 6.38654 3.34342 4.77452 3.6272 4.50823C4.56562 3.62431 8.65367 3.28151 12.4243 3.30698H12.6968C15.9616 3.34665 18.923 3.65827 19.3135 4.13424C20.0637 5.04651 19.9907 18.4129 19.041 22.1753Z" fill="url(#paint0_linear_3550_75726)"/>
<path d="M5.05957 3.89481C5.05957 3.89481 12.3117 2.55434 19.3145 4.13379H20.384C20.384 4.13379 19.8211 3.46288 16.118 3.19337C12.4174 2.92049 8.69713 3.15647 5.05957 3.89481Z" fill="#FEEDE3"/>
<path d="M19.6738 23.1218C19.666 23.1248 19.6584 23.1286 19.6513 23.1331C19.4662 23.2125 19.2743 23.2751 19.0782 23.3201C19.0641 23.3229 19.0529 23.3258 19.0388 23.3286C18.1537 23.5468 16.1898 23.8527 12.245 23.7819C6.40376 23.6771 4.9062 23.0425 4.81628 23.0028L4.81348 23C4.81348 23 5.59456 23.102 6.83365 23.2153H6.83645C9.16093 23.4352 11.4951 23.5345 13.8297 23.5128C14.0432 23.5099 14.2483 23.5043 14.4478 23.4986C15.4846 23.4759 16.3359 23.4391 17.0243 23.3995H17.0384C17.3755 23.3768 17.6733 23.357 17.9346 23.3343C18.5182 23.3006 19.0991 23.2297 19.6738 23.1218Z" fill="#CA306B"/>
<g style="mix-blend-mode:multiply" opacity="0.3">
<path d="M4.49708 4.99917C3.40833 5.61849 4.16641 15.2311 6.13611 18.2581C8.10581 21.285 17.7906 14.8193 19.017 11.8522C20.2435 8.88505 18.54 5.01998 16.943 4.13437C15.346 3.24876 5.67948 4.32658 4.49708 4.99917Z" fill="#F7B5CA"/>
</g>
<g style="mix-blend-mode:overlay" opacity="0.3">
<path d="M10.058 23.395C7.28972 22.5904 17.8731 16.6332 18.7886 16.2818C19.7042 15.9304 19.2855 22.1919 18.6201 22.9995C17.9546 23.8071 10.058 23.395 10.058 23.395Z" fill="white"/>
</g>
<g style="mix-blend-mode:multiply" opacity="0.5">
<path d="M19.8211 4.13379C19.5517 4.13379 19.9841 8.91133 19.8211 14.5476C19.6582 20.1839 19.3973 21.3112 19.6741 21.526C19.9509 21.7407 20.9682 15.9043 20.8886 11.5246C20.809 7.14493 20.5241 4.40226 20.384 4.32172C20.2019 4.24336 20.0136 4.1805 19.8211 4.13379Z" fill="#E39AA9"/>
</g>
<g style="mix-blend-mode:multiply" opacity="0.8">
<path d="M20.2014 21.7559C20.0524 22.5039 19.8755 22.994 19.6732 23.1215C19.6653 23.1245 19.6578 23.1283 19.6507 23.1328C19.4697 23.2231 19.2766 23.2861 19.0775 23.3198C19.0635 23.3226 19.0522 23.3255 19.0382 23.3283C18.1531 23.5465 16.1892 23.8524 12.2444 23.7816C6.40314 23.6768 4.90558 23.0421 4.81566 23.0025L4.81286 22.9997C4.61346 22.9529 4.42652 22.863 4.26498 22.7362C3.51483 21.9996 3.0287 13.7128 3.14113 8.55664C3.20292 10.8004 3.49513 19.8408 4.19476 21.62C4.40673 22.0398 4.76792 22.3635 5.2062 22.5265C6.29358 23.0421 8.08054 23.2972 10.0135 23.3821C10.8986 23.419 11.8173 23.4218 12.7108 23.3963C14.8252 23.2891 16.9151 22.8916 18.923 22.2149C18.9623 22.2007 19.0016 22.1894 19.041 22.1753C19.7322 21.9458 20.1621 21.773 20.2014 21.7559Z" fill="#F19AA9"/>
</g>
<path d="M14.4569 3.59368C12.9008 3.70545 14.1746 5.55283 15.5055 6.2507C16.8363 6.94857 18.0321 4.53535 18.2296 4.1344C18.4271 3.73345 15.399 3.52606 14.4569 3.59368Z" fill="white"/>
<path d="M7.58673 7.89976L7.49789 7.86816L7.30273 8.40834L7.49789 10.0134L7.86925 11.1608L8.32386 11.4261L9.86254 10.3848L9.66671 10.0134L8.21195 10.8624L7.58673 7.89976Z" fill="#FFF8F6"/>
<path d="M13.708 10.2997L13.8451 10.1104L13.9637 10.0586L15.5268 11.0051L15.0746 11.3444L13.708 10.2997Z" fill="#FFF8F6"/>
<path d="M10.1356 18.2653L9.68035 18.1201C9.67243 18.1543 9.65765 18.2245 9.66188 18.2315C9.6661 18.2385 9.95392 18.3403 10.0973 18.3904L10.1356 18.2653Z" fill="#FFF8F6"/>
<path d="M8.83242 16.0642C8.83321 16.062 8.67439 16.0263 8.59488 16.0088L8.56738 16.0642L8.81621 16.1116L8.83242 16.0642Z" fill="#FFF8F6"/>
<path d="M12.5001 17.8793L11.8719 18.3812C11.8118 18.5154 11.6927 18.7927 11.6974 18.828C11.7021 18.8633 12.0444 18.9236 12.215 18.9493L13.4655 18.475L14.3031 17.2946L14.4834 16.6217L13.9483 16.4673L12.5001 17.8793Z" fill="#FFF8F6"/>
<path d="M9.34828 10.6667C9.34828 10.6667 9.78687 9.71108 11.4948 9.72876C13.2027 9.74643 15.4323 11.3259 15.4323 11.3259C15.4323 11.3259 15.6957 12.2695 15.5236 13.3882C15.2561 15.1271 14.4854 17.3626 14.2747 17.702C13.9286 18.2596 13.8361 18.7019 12.8376 18.8967C11.8391 19.0915 11.1564 19.4807 10.4769 18.7463C9.79747 18.0118 9.24485 17.1266 8.98389 16.5162C8.72293 15.9059 8.37717 14.8435 8.24669 14.3479C8.11621 13.8523 7.84612 12.7019 8.1524 12.1453C8.45868 11.5886 8.86182 10.8282 9.16042 10.7381C9.45903 10.6479 9.34828 10.6667 9.34828 10.6667Z" fill="#FFF8F6"/>
<path d="M10.8296 17.8726L11.4111 17.9998L11.5478 17.8775L12.0179 17.9423L11.7763 18.3048L11.538 18.4702C11.3896 18.4095 11.0855 18.2899 11.0537 18.2833L10.7741 18.2262L10.4576 17.8913L10.2383 17.4973L9.86293 16.9444L9.64985 16.9243L9.42032 17.0519L9.1875 16.6789L9.41703 16.48L10.0464 16.5063L10.4181 17.3999L10.8296 17.8726Z" fill="#FFF8F6"/>
<path d="M11.7917 18.0938L11.7861 18.1032L11.7917 18.0938Z" fill="#D1D1D1"/>
<path d="M11.4375 18.083C11.4726 18.0789 11.5074 18.0729 11.5417 18.0649C11.5074 18.0729 11.4726 18.079 11.4375 18.083Z" fill="#E3E3E3"/>
<path d="M12.209 16.2755C12.2142 16.2781 12.2178 16.2755 12.219 16.2812C12.2183 16.2793 12.2169 16.2777 12.2151 16.2766C12.2132 16.2756 12.2111 16.2752 12.209 16.2755Z" fill="#E3E3E3"/>
<path d="M12.2656 16.3009L12.27 16.3036C12.27 16.3036 12.2689 16.3002 12.2656 16.3009Z" fill="#E3E3E3"/>
<path d="M12.1807 16.2609C12.1855 16.2635 12.1895 16.2627 12.1942 16.2654C12.1855 16.2635 12.1843 16.2601 12.1807 16.2609Z" fill="#E3E3E3"/>
<path d="M11.4014 18.0881C11.4125 18.0885 11.4236 18.0871 11.4343 18.084C11.42 18.0875 11.412 18.0857 11.4014 18.0881Z" fill="#E3E3E3"/>
<path d="M12.1465 16.2515C12.1505 16.2515 12.1553 16.2515 12.1601 16.256C12.1552 16.2555 12.1506 16.2539 12.1465 16.2515Z" fill="#E3E3E3"/>
<path d="M11.3613 18.0909C11.3712 18.0912 11.3811 18.09 11.3906 18.0874C11.3811 18.09 11.3712 18.0912 11.3613 18.0909Z" fill="#E3E3E3"/>
<path d="M11.3203 18.0941C11.3304 18.0936 11.3405 18.0936 11.3506 18.0941C11.3405 18.0936 11.3304 18.0936 11.3203 18.0941Z" fill="#E3E3E3"/>
<path d="M12.2402 16.2866C12.2438 16.2866 12.245 16.2893 12.2498 16.2923C12.247 16.2885 12.247 16.2893 12.2402 16.2866Z" fill="#E3E3E3"/>
<path d="M8.70219 15.8113C8.72203 15.819 8.74226 15.8257 8.76281 15.8314C8.74488 15.7773 8.73056 15.7221 8.71995 15.6662C8.69602 15.543 8.6659 15.3983 8.64003 15.252L8.56938 15.2111C8.48296 15.1587 8.40098 15.0995 8.32422 15.0342C8.38792 15.249 8.44004 15.4699 8.49448 15.6874C8.56861 15.7275 8.63154 15.7863 8.70219 15.8113Z" fill="#FFF8F6"/>
<path d="M15.6715 7.86961C15.6595 7.87324 15.6465 7.87755 15.6326 7.88252L15.6715 7.86961ZM15.6715 7.86961C15.6713 7.87139 15.6711 7.87296 15.671 7.87427C15.6703 7.88116 15.6703 7.88851 15.6703 7.88874C15.6703 7.89008 15.6702 7.89061 15.6703 7.89061C15.6703 7.89061 15.6704 7.88926 15.6707 7.88765L15.6741 7.8884C15.6741 7.88839 15.6741 7.88839 15.6741 7.88838C15.674 7.88811 15.674 7.88784 15.6739 7.88757L15.7113 7.89593C15.7114 7.89611 15.7115 7.89628 15.7115 7.89645C15.7115 7.89651 15.7115 7.89657 15.7116 7.89663L15.7166 7.89773C15.7165 7.89766 15.7165 7.89759 15.7164 7.89752C15.7163 7.89734 15.7162 7.89717 15.7161 7.89699L15.7722 7.90955M15.6729 7.87828C15.6727 7.87506 15.6727 7.87204 15.6728 7.86924C15.6736 7.869 15.6744 7.86875 15.6752 7.86852C15.6744 7.87178 15.6736 7.87504 15.6729 7.87828Z" fill="#FFF8F6" stroke="#FFF8F6" stroke-width="0.207753"/>
<path d="M11.9609 16.2173C12.0143 16.2215 12.0671 16.2302 12.1188 16.2433C12.068 16.2267 12.0147 16.218 11.9609 16.2173Z" fill="#E3E3E3"/>
<path d="M13.3714 9.94852L13.3687 9.9375C13.3667 9.94586 13.3714 9.94852 13.3714 9.94852Z" fill="#E3E3E3"/>
<path d="M11.2793 18.0963C11.2904 18.0979 11.3018 18.0979 11.3129 18.0963C11.3012 18.0946 11.2906 18.097 11.2793 18.0963Z" fill="#E3E3E3"/>
<path d="M11.7158 18.0232L11.7336 18.019C11.7263 18.0208 11.7238 18.0249 11.7158 18.0232Z" fill="#E3E3E3"/>
<path d="M11.6738 18.0374L11.6954 18.0322L11.6738 18.0374Z" fill="#E3E3E3"/>
<path d="M11.6279 18.0477L11.6495 18.0425L11.6279 18.0477Z" fill="#E3E3E3"/>
<path d="M11.5879 18.0572L11.6127 18.0513L11.5879 18.0572Z" fill="#E3E3E3"/>
<path d="M11.5459 18.0641L11.5744 18.0571L11.5459 18.0641Z" fill="#E3E3E3"/>
<path d="M15.0777 13.4795C15.0827 13.4668 15.0869 13.4539 15.0902 13.4407C15.0902 13.4376 15.0927 13.4365 15.0927 13.4365C15.0873 13.4448 15.0777 13.4511 15.0723 13.4594L15.0777 13.4795Z" fill="#6B2813"/>
<path d="M7.64057 8.57184C7.66835 8.88378 7.69467 9.19191 7.73268 9.50107C7.7684 9.82401 7.8367 10.143 7.93662 10.4535C7.98218 10.5918 8.03988 10.7262 8.10913 10.8552C8.15299 10.9339 8.20672 11.0067 8.25752 11.084C8.33273 11.0024 8.41448 10.9263 8.50204 10.8566C8.64616 10.7316 8.79785 10.6145 8.95634 10.5062C9.11643 10.3995 9.30246 10.2636 9.50458 10.2092C9.76261 10.075 9.99872 10.014 10.0199 9.98042C10.0305 9.96379 10.0199 9.92323 9.99726 9.86812C10.0067 9.88704 10.0145 9.90662 10.0206 9.9267C10.0206 9.93329 10.0152 9.93502 10.0133 9.9267C9.71349 9.51315 9.36325 9.13459 8.96986 8.79886C8.7731 8.63193 8.56264 8.4801 8.34049 8.34481C8.13216 8.21623 7.91177 8.11225 7.71148 7.97118C7.71028 7.96985 7.7094 7.9683 7.70888 7.96662C7.70836 7.96495 7.70821 7.96319 7.70845 7.96145C7.70869 7.95972 7.70931 7.95806 7.71028 7.95657C7.71124 7.95508 7.71252 7.9538 7.71404 7.95281C7.61901 7.92196 7.56163 7.91815 7.56784 7.95281C7.58776 8.02858 7.59855 8.10626 7.6 8.18434C7.61243 8.31709 7.62742 8.44256 7.64057 8.57184Z" fill="#F1A589"/>
<path d="M11.8281 18.1362C11.8336 18.1421 11.838 18.1445 11.8431 18.1504L11.8343 18.1157C11.8332 18.1228 11.8311 18.1296 11.8281 18.1362Z" fill="#FFF8F6"/>
<path d="M11.8121 18.0746C11.815 18.0705 11.8194 18.0729 11.8227 18.0722C11.8264 18.0722 11.8264 18.0722 11.8275 18.0746C11.8284 18.0744 11.8293 18.0745 11.8302 18.075C11.831 18.0754 11.8316 18.0762 11.8318 18.077C11.8357 18.0744 11.8404 18.073 11.8452 18.073C11.85 18.073 11.8546 18.0744 11.8585 18.077C12.034 18.267 12.3143 18.2566 12.5559 18.2157C12.6655 18.2 12.7707 18.1634 12.8649 18.1079C12.9592 18.0525 13.0406 17.9795 13.1041 17.8933C13.2266 17.7315 13.3081 17.5436 13.4002 17.3675V17.3641C13.4952 17.0868 13.6666 16.813 13.9396 16.6646C14.1041 16.5745 14.2295 16.8161 14.0562 16.8868C13.9498 16.9362 13.8513 16.9998 13.7638 17.0757C13.7273 17.145 13.6929 17.2182 13.663 17.2896C13.6788 17.2761 13.6957 17.2637 13.7134 17.2525C13.8574 17.1568 14.0336 17.1104 14.1666 17.0029C14.2011 16.9762 14.2296 16.9431 14.2503 16.9057C14.2709 16.8682 14.2833 16.8272 14.2867 16.7851C14.2902 16.7429 14.2845 16.7006 14.2701 16.6606C14.2558 16.6206 14.233 16.5837 14.2031 16.5523C14.0657 16.4068 13.8446 16.4678 13.6915 16.5617C13.5116 16.6734 13.3733 16.8359 13.296 17.0261C13.2112 17.2293 13.1655 17.4514 13.0635 17.6476C13.0124 17.753 12.9358 17.8456 12.84 17.9178C12.7442 17.9901 12.6319 18.04 12.512 18.0635C12.4967 18.0678 12.4809 18.0704 12.4649 18.0711L12.4473 18.0757C12.4367 18.0781 12.425 18.0774 12.4181 18.0791C12.4111 18.0808 12.4031 18.0791 12.3958 18.0808C12.3885 18.0826 12.3808 18.0808 12.3739 18.0826C12.3669 18.0843 12.3589 18.0826 12.3516 18.0843C12.3443 18.086 12.3366 18.0843 12.3296 18.086C12.3223 18.0846 12.3147 18.0846 12.3073 18.086C12.3004 18.0878 12.2924 18.086 12.2851 18.0881C12.2777 18.0902 12.2701 18.0881 12.262 18.0881C12.254 18.0881 12.247 18.0881 12.2427 18.0857C12.2383 18.0833 12.2277 18.0857 12.2196 18.0857C12.2116 18.0857 12.2079 18.0857 12.1999 18.0833C12.1919 18.0808 12.1849 18.0833 12.1769 18.0815C12.1688 18.0798 12.1655 18.0815 12.1575 18.0791C12.1487 18.077 12.1396 18.077 12.1308 18.0791C12.1228 18.0774 12.1195 18.0791 12.1114 18.0767L12.0873 18.0718C12.0793 18.0701 12.076 18.0718 12.068 18.0694L12.0438 18.0646C12.0377 18.0621 12.031 18.0613 12.0245 18.0621L12.0003 18.0573C11.9942 18.0548 11.9875 18.054 11.981 18.0549L11.9568 18.0497C11.9488 18.0497 11.9444 18.0455 11.9375 18.0472L11.9133 18.0424C11.9057 18.0406 11.9009 18.0382 11.8932 18.0365C11.8856 18.0348 11.8805 18.0327 11.8728 18.0309L11.8487 18.0261C11.8438 18.0234 11.8382 18.0222 11.8326 18.0226C11.8239 18.0212 11.8155 18.0184 11.8077 18.0143C11.807 18.0327 11.8103 18.0538 11.8121 18.0746Z" fill="#FFF8F6"/>
<path d="M10.4998 17.6695C10.3942 17.4733 10.346 17.2535 10.2546 17.0529C10.1723 16.8646 10.0304 16.7052 9.84853 16.5967C9.69575 16.5052 9.4728 16.4484 9.33977 16.5985C9.31096 16.6307 9.28926 16.668 9.27595 16.7083C9.26264 16.7486 9.258 16.791 9.26229 16.833C9.26659 16.875 9.27973 16.9158 9.30095 16.9529C9.32217 16.99 9.35103 17.0227 9.38582 17.049C9.52361 17.1551 9.70124 17.1977 9.84707 17.2917C9.91911 17.3393 9.98574 17.3939 10.0459 17.4546C9.9918 17.3388 9.94173 17.2223 9.87886 17.1159C9.78563 17.0385 9.68081 16.9746 9.56783 16.9264C9.41213 16.8678 9.53128 16.6241 9.68004 16.699C9.96439 16.8446 10.1457 17.1118 10.2528 17.397C10.2528 17.4005 10.2528 17.4005 10.2528 17.4047C10.3493 17.5818 10.4355 17.7644 10.5667 17.9246C10.6345 18.0102 10.72 18.0818 10.818 18.1349C10.9159 18.1881 11.0243 18.2217 11.1365 18.2337C11.3671 18.2635 11.6182 18.2708 11.7886 18.1041L11.7937 18.0958C11.8006 18.0907 11.8065 18.0845 11.8112 18.0774H11.8149C11.8125 18.0551 11.8115 18.0326 11.8119 18.0102H11.8083C11.8059 18.0092 11.8034 18.0087 11.8008 18.0087C11.7982 18.0087 11.7957 18.0092 11.7933 18.0102C11.7896 18.0102 11.7853 18.0084 11.778 18.0102L11.7356 18.0206L11.718 18.0247L11.6932 18.0306L11.672 18.0358L11.6508 18.041L11.6292 18.0462L11.6117 18.0504L11.5868 18.0566L11.5725 18.0601L11.5444 18.0667L11.5375 18.0684C11.503 18.0763 11.4681 18.0824 11.4329 18.0868H11.4293C11.4187 18.0895 11.407 18.0889 11.3964 18.0913L11.3894 18.093C11.3796 18.0927 11.3697 18.0938 11.3602 18.0965L11.3533 18.0982C11.3431 18.0987 11.333 18.0987 11.3229 18.0982C11.3193 18.0982 11.3204 18.1027 11.3167 18.1034C11.3061 18.1062 11.2948 18.1034 11.2842 18.1079C11.2093 18.1109 11.1344 18.1025 11.0623 18.083C10.9414 18.0596 10.8278 18.0101 10.7302 17.9384C10.6327 17.8667 10.5538 17.7747 10.4998 17.6695Z" fill="#FFF8F6"/>
<path d="M11.1356 11.2124C11.1356 11.1947 11.1378 11.1777 11.1356 11.1621C11.1332 11.1788 11.1332 11.1957 11.1356 11.2124Z" fill="#FF0000"/>
<path d="M11.1399 11.3826C11.1399 11.3649 11.1399 11.3507 11.1377 11.333C11.1388 11.351 11.1388 11.3652 11.1399 11.3826Z" fill="#FF0000"/>
<path d="M11.1377 11.3192C11.1377 11.305 11.1348 11.295 11.1348 11.2808C11.1374 11.2934 11.1383 11.3063 11.1377 11.3192Z" fill="#FF0000"/>
<path d="M11.1712 11.6513C11.1701 11.6303 11.167 11.6094 11.1621 11.5889C11.167 11.6094 11.1701 11.6303 11.1712 11.6513Z" fill="#FF0000"/>
<path d="M11.1377 11.1052C11.1377 11.0941 11.1377 11.0799 11.1377 11.0688C11.1384 11.0796 11.1377 11.0903 11.1377 11.1052Z" fill="#FF0000"/>
<path d="M11.1396 11.0579C11.1433 11.0284 11.1429 10.9997 11.1462 10.9702C11.1422 10.9966 11.1422 11.025 11.1396 11.0579Z" fill="#FF0000"/>
<path d="M11.1462 11.4463C11.1462 11.4286 11.1437 11.4078 11.1426 11.3901C11.1437 11.4078 11.1455 11.4286 11.1462 11.4463Z" fill="#FF0000"/>
<path d="M11.1542 11.5053C11.1542 11.4911 11.1506 11.4776 11.1506 11.4634C11.1499 11.4774 11.1511 11.4915 11.1542 11.5053Z" fill="#FF0000"/>
<path d="M11.1603 11.5677C11.1603 11.5531 11.1567 11.5399 11.1563 11.5254C11.156 11.5396 11.1573 11.5538 11.1603 11.5677Z" fill="#FF0000"/>
<path d="M11.1445 10.9668C11.1445 10.9523 11.1489 10.9405 11.1486 10.9263C11.1497 10.9399 11.1483 10.9536 11.1445 10.9668Z" fill="#FF0000"/>
<path d="M11.8016 14.2959C11.8001 14.3051 11.7975 14.3142 11.7939 14.3229C11.7958 14.3137 11.7983 14.3047 11.8016 14.2959Z" fill="#FF0000"/>
<path d="M11.1372 11.1582V11.1152C11.1372 11.1294 11.1361 11.1395 11.1372 11.1582Z" fill="#FF0000"/>
<path d="M11.1523 10.9228C11.1523 10.9121 11.1575 10.9003 11.1575 10.8857C11.1573 10.8983 11.1556 10.9107 11.1523 10.9228Z" fill="#FF0000"/>
<path fill-rule="evenodd" clip-rule="evenodd" d="M11.807 14.2768L11.8034 14.2917C11.8023 14.2984 11.8002 14.3049 11.7972 14.3111C11.7961 14.3135 11.7961 14.3163 11.7972 14.3187V14.3222V14.3187C11.7981 14.3162 11.7981 14.3136 11.7972 14.3111C11.8002 14.3049 11.8023 14.2984 11.8034 14.2917C11.8216 14.2338 11.8589 14.0924 11.9112 13.8934C11.8997 13.4893 11.8631 13.0862 11.8015 12.6862C11.6919 11.9753 11.4967 11.261 11.1802 10.8087C10.8878 10.3928 10.4905 10.1962 9.9518 10.4233C8.22668 11.1456 8.63859 12.8561 9.6594 13.1812C10.2774 13.3749 10.8929 14.1593 11.4057 15.1797C11.7909 15.9522 11.9499 15.0299 11.9127 13.8972C11.8626 14.0771 11.8235 14.212 11.807 14.2768ZM11.0347 13.3153L11.0187 13.298C11.0205 13.3046 11.0293 13.3098 11.0347 13.3153ZM9.8257 11.9237C9.72008 11.9098 9.62468 11.9473 9.53843 12.0471C9.4931 12.0968 9.46728 12.1599 9.46533 12.2256C9.46728 12.1599 9.4931 12.0968 9.53843 12.0471C9.62468 11.9473 9.72373 11.9123 9.8257 11.9237Z" fill="#FFF8F6"/>
<path d="M10.0633 14.875C10.0502 14.8716 10.0369 14.8688 10.0234 14.8667C10.0351 14.8677 10.0476 14.8719 10.0633 14.875Z" fill="#3B3B3B"/>
<path d="M9.58956 14.7683C9.56105 14.7607 9.53255 14.7534 9.50879 14.7485C9.53255 14.7534 9.56105 14.7607 9.58956 14.7683Z" fill="#3B3B3B"/>
<path d="M9.98751 14.858C9.8585 14.8285 9.72729 14.8032 9.59863 14.7734C9.72729 14.8032 9.8585 14.8285 9.98751 14.858Z" fill="#3B3B3B"/>
<path d="M9.32016 14.69C9.2953 14.6817 9.26972 14.6699 9.24121 14.6626C9.26972 14.6699 9.2953 14.6817 9.32016 14.69Z" fill="#3B3B3B"/>
<path d="M9.41099 14.7217L9.33789 14.6968L9.41099 14.7217Z" fill="#3B3B3B"/>
<path d="M9.49888 14.7451C9.47403 14.7368 9.45027 14.732 9.42578 14.7236C9.44931 14.7332 9.4738 14.7404 9.49888 14.7451Z" fill="#3B3B3B"/>
<path d="M9.6748 13.9819C9.67915 13.9843 9.68713 13.9861 9.69148 13.9885C9.68676 13.9854 9.67915 13.9837 9.6748 13.9819Z" fill="#3B3B3B"/>
<path d="M8.47228 13.5073C8.47593 13.5208 8.48288 13.5333 8.4858 13.5419C8.4858 13.5343 8.4858 13.5308 8.48836 13.5232C8.48232 13.5146 8.47506 13.5068 8.4668 13.5C8.47118 13.5042 8.47118 13.5042 8.47228 13.5073Z" fill="#3B3B3B"/>
<path d="M10.0732 15.5955L10.0906 15.591C10.0943 15.591 10.0935 15.5869 10.0906 15.5879C10.0856 15.5846 10.08 15.5822 10.074 15.5811C10.0776 15.5838 10.0751 15.5879 10.0732 15.5955Z" fill="#FFF8F6"/>
<path fill-rule="evenodd" clip-rule="evenodd" d="M11.5597 18.916C11.458 18.9021 11.3592 18.8728 11.2673 18.8293C10.9847 18.6907 11.2943 18.5794 11.438 18.6089C12.1053 18.7475 13.0461 18.5191 13.2088 18.3905C13.4021 18.2401 13.4748 17.9504 13.5454 17.6793C13.5749 17.549 13.6147 17.421 13.6645 17.2963C13.6462 17.34 13.628 17.384 13.6086 17.4246C13.4869 17.715 13.3619 18.0065 13.113 18.2027C12.8977 18.3694 12.6415 18.4138 12.374 18.3999C12.1868 18.3916 11.9186 18.3351 11.8458 18.1486C11.8404 18.1427 11.836 18.1403 11.8309 18.1344C11.7698 18.3424 11.4698 18.4044 11.272 18.4117C11.014 18.4207 10.7585 18.3822 10.552 18.2176C10.3071 18.0232 10.1788 17.7431 10.0506 17.463L10.0443 17.4537C9.98419 17.393 9.91756 17.3384 9.84551 17.2908C9.77869 17.25 9.70854 17.2143 9.63572 17.184C9.54643 17.1487 9.46199 17.1032 9.38426 17.0485C9.34947 17.0222 9.32061 16.9895 9.2994 16.9524C9.27818 16.9152 9.26503 16.8745 9.26074 16.8325C9.25644 16.7904 9.26109 16.748 9.27439 16.7077C9.2877 16.6675 9.3094 16.6301 9.33821 16.5979C9.47125 16.4479 9.6942 16.5047 9.84697 16.5962C10.0289 16.7047 10.1707 16.8641 10.253 17.0523C10.2896 17.1362 10.3221 17.2256 10.3528 17.3109C10.3922 17.4337 10.4421 17.5532 10.5019 17.6682C10.5558 17.7727 10.6348 17.8637 10.7326 17.9339C10.8303 18.0041 10.9441 18.0515 11.0648 18.0724C11.1301 18.0838 11.1962 18.0904 11.2625 18.0921C11.2695 18.0921 11.2775 18.0921 11.2848 18.0904L11.2775 18.0921H11.2738H11.2706H11.2669H11.2632C11.2313 18.0921 11.1993 18.0904 11.1675 18.0869C11.0165 18.0304 11.0648 17.9008 11.2866 17.7861C11.3298 17.7649 11.3802 17.7417 11.4328 17.7223C11.6426 17.6322 11.893 17.5251 11.8966 17.288C12.3411 18.0817 12.8049 17.522 12.6452 16.8596C12.5808 16.5924 12.4595 16.4361 12.3367 16.3442C12.3488 16.3581 12.3581 16.3739 12.3641 16.391C12.4401 16.6444 11.8327 17.2034 11.8327 17.2034C11.8327 17.2034 11.2132 16.6558 11.2844 16.399C11.3261 16.2458 11.6784 16.1817 11.973 16.2108C11.973 16.2108 11.9712 15.9106 12.2128 14.7356C12.3224 14.2081 12.4964 13.9263 12.681 13.6314C12.819 13.4225 12.9365 13.2021 13.0319 12.9728C13.1344 12.713 13.2098 12.4443 13.257 12.1705C13.2014 12.2305 13.1469 12.2938 13.0933 12.3604C13.1452 12.2931 13.2007 12.2283 13.2596 12.1663C13.2691 12.1174 13.2778 12.0654 13.2855 12.01C13.5414 10.4156 11.7311 9.75707 11.7311 9.75707C11.7212 9.75881 11.711 9.75881 11.7011 9.75707C11.6916 9.75979 11.6818 9.76097 11.6719 9.76054C11.3429 9.72588 11.007 9.80005 10.6986 9.91408C10.685 9.92007 10.67 9.92246 10.6551 9.92101C10.6315 9.92797 10.6061 9.92747 10.5829 9.9196C10.5596 9.91172 10.5397 9.89689 10.5261 9.87734C10.4566 9.78688 10.3868 9.69641 10.3199 9.60179C10.1372 9.36298 9.95991 9.12002 9.75304 8.89854C9.48405 8.60964 9.18896 8.3436 8.87111 8.10344C8.63945 7.92842 8.3952 7.76894 8.14013 7.62617C8.02806 7.56194 7.90955 7.50842 7.78634 7.46639C7.78195 7.46396 7.7783 7.46465 7.77391 7.46223C7.68692 7.43311 7.57508 7.39603 7.48736 7.42063C7.3006 7.46951 7.26478 7.71455 7.24102 7.8778C7.23922 7.88498 7.23922 7.89246 7.24102 7.89964C7.20585 8.15486 7.18572 8.41174 7.18072 8.66909C7.16799 9.3836 7.2733 10.0956 7.49285 10.7792C7.57574 11.0614 7.68168 11.3371 7.80973 11.6038C7.81667 11.6166 7.82508 11.6325 7.83312 11.6485C7.85797 11.6994 7.88867 11.7566 7.9128 11.8187C7.97334 11.6531 8.05811 11.4964 8.16462 11.3532C8.16869 11.344 8.17645 11.3367 8.18618 11.3329C8.19591 11.3292 8.20683 11.3292 8.21652 11.3331C8.22621 11.3369 8.23389 11.3443 8.23787 11.3535C8.24184 11.3627 8.24179 11.3731 8.23772 11.3823C8.21067 11.4925 8.17705 11.6045 8.14561 11.7122C8.10395 11.8509 8.06192 11.9895 8.03195 12.1282C7.97183 12.3912 7.93515 12.6586 7.9223 12.9274C7.89329 13.4013 7.95521 13.8762 8.10504 14.3291V14.3325C8.12113 14.3786 8.13648 14.4213 8.15621 14.4667C8.23626 14.6656 8.3057 14.867 8.36527 15.0743C8.43936 15.1323 8.51684 15.1864 8.59736 15.2361C8.61966 15.2486 8.63939 15.2652 8.66498 15.277C8.64414 15.1568 8.61929 15.0375 8.60211 14.9304L8.59846 14.9027C8.56191 14.6947 8.53413 14.5388 8.53413 14.5388C8.53413 14.5388 8.15914 13.7069 8.18655 13.2778L8.17924 13.2085V13.2019V13.195C8.17741 13.1742 8.17449 13.1499 8.17266 13.1288V13.1222V13.1153C8.16974 13.0768 8.17047 13.0373 8.16864 13.0019C8.16864 12.9985 8.16864 12.9943 8.16864 12.9877C8.16864 12.9812 8.16864 12.9766 8.16864 12.9701C8.16864 12.9635 8.16864 12.9555 8.16864 12.9482C8.16864 12.9409 8.16864 12.9337 8.16864 12.9264C8.16864 12.9118 8.1712 12.8935 8.17083 12.8792C8.17083 12.8682 8.17083 12.8539 8.17083 12.8397C8.17083 12.8255 8.17083 12.8002 8.17412 12.7815C8.17668 12.7773 8.17412 12.7708 8.17741 12.7666C8.1807 12.7624 8.17741 12.7555 8.18107 12.7514L8.18838 12.6654C8.20788 12.5322 8.23794 12.4006 8.27829 12.2717C8.31057 12.1818 8.35003 12.0945 8.39634 12.0103L8.4413 11.9244C8.4413 11.9209 8.44458 11.9244 8.44458 11.9244C8.41256 12.0367 8.38923 12.1512 8.37478 12.2668C8.37306 12.2869 8.36964 12.3068 8.36454 12.3264C8.36229 12.3349 8.36082 12.3436 8.36016 12.3524C8.35504 12.3753 8.35431 12.4006 8.34919 12.4217C8.35541 12.4595 8.35943 12.5015 8.36235 12.5403C8.36434 12.5788 8.36837 12.6172 8.37441 12.6553C8.39181 12.7457 8.4218 12.8335 8.46359 12.9163C8.4698 12.9257 8.47529 12.9316 8.4815 12.9406C8.48763 12.9473 8.49325 12.9543 8.49831 12.9617V12.9683C8.49869 12.973 8.50095 12.9773 8.50464 12.9804C8.50832 12.9835 8.51313 12.9852 8.51805 12.985C8.89926 12.985 9.51109 13.3381 9.78228 13.6435C9.83142 13.7034 9.87197 13.7693 9.90289 13.8393L9.90728 13.8421C9.90728 13.8452 9.91203 13.8445 9.91532 13.8421C10.3367 14.0334 10.7026 14.2847 10.9661 14.6608C11.1125 14.8717 11.2221 15.1037 11.2907 15.3477L11.3016 15.3879C11.3488 15.5612 11.4029 15.7498 11.3802 15.9304C11.4011 16.022 11.406 16.1163 11.3948 16.2094C11.3948 16.2239 11.3718 16.2222 11.3692 16.2122C11.3338 16.0746 11.273 15.944 11.1898 15.8264C11.1119 15.7192 11.0209 15.6213 10.9186 15.5346C10.7117 15.3597 10.468 15.2284 10.2037 15.1495C10.1786 15.1406 10.1528 15.1338 10.1266 15.129C10.1234 15.2793 10.1073 15.4291 10.0783 15.5768L10.0871 15.5817L10.0959 15.5869C10.0995 15.5869 10.0959 15.59 10.0959 15.59L10.078 15.5945C10.0209 15.8586 9.91788 16.0912 9.76181 16.2399C9.36489 16.6153 9.06738 16.3972 8.89121 16.0898C8.84407 16.0832 8.80094 16.0759 8.75269 16.0659C8.75022 16.0668 8.74749 16.0668 8.74502 16.0659C8.72455 16.0604 8.70043 16.0555 8.67996 16.0496L8.67558 16.0472L8.67119 16.0444C8.66315 16.0444 8.65876 16.0406 8.65072 16.0389L8.60906 16.024C8.62733 16.1054 8.64999 16.1893 8.67229 16.2732C8.81848 16.8624 9.00123 17.4745 9.37257 17.9746C9.68616 18.3957 10.1401 18.733 10.6017 18.9929C10.8433 19.1341 11.1007 19.2493 11.3692 19.3364C11.5173 19.3825 11.6646 19.4113 11.8129 19.4435L11.8517 19.4338L11.9368 19.4134H11.9405C11.9741 19.3201 12.0805 19.0009 11.5597 18.916ZM12.5278 13.3011C12.537 13.2917 12.5428 13.2865 12.552 13.2775C12.5422 13.2834 12.534 13.2914 12.5278 13.3007V13.3011ZM8.30935 11.2682C8.30082 11.276 8.29055 11.2818 8.27931 11.2851C8.26806 11.2885 8.25616 11.2894 8.24449 11.2878C8.23282 11.2862 8.2217 11.282 8.21197 11.2757C8.20225 11.2694 8.19418 11.261 8.18838 11.2513C7.95446 11.1254 7.82946 10.7875 7.74979 10.5598C7.64473 10.2435 7.57131 9.91862 7.53049 9.58931C7.48761 9.2604 7.46892 8.92906 7.47457 8.59769C7.47457 8.47569 7.48481 8.35507 7.49394 8.23549C7.49394 8.22094 7.49723 8.20603 7.49723 8.19147C7.49723 8.17692 7.49723 8.16652 7.49723 8.15681C7.49839 8.07667 7.51257 7.99717 7.53926 7.92113C7.53926 7.9135 7.54913 7.91523 7.55096 7.92113C7.55728 7.93362 7.56206 7.94676 7.56521 7.96029C7.55973 7.92563 7.61309 7.92736 7.71141 7.96029H7.7147C7.98553 8.01263 8.23077 8.13948 8.46725 8.27501C8.69572 8.4026 8.91194 8.54897 9.11343 8.71242C9.5058 9.02174 9.80784 9.42142 9.99061 9.87318C10.0169 9.9276 10.0272 9.96468 10.0136 9.98548C10.0001 10.0063 9.94821 10.0229 9.86232 10.0548C9.73775 10.1011 9.61576 10.1533 9.49683 10.2115C9.56977 10.1893 9.64617 10.1793 9.72271 10.1817C9.72343 10.1814 9.7242 10.1813 9.72497 10.1814C9.72573 10.1814 9.72648 10.1816 9.72715 10.182C9.72783 10.1823 9.72842 10.1828 9.72889 10.1834C9.72936 10.184 9.7297 10.1846 9.72988 10.1853C9.73006 10.186 9.73008 10.1868 9.72994 10.1875C9.7298 10.1882 9.7295 10.1889 9.72907 10.1895C9.72863 10.1901 9.72807 10.1906 9.72741 10.191C9.72676 10.1914 9.72603 10.1916 9.72526 10.1917C9.6423 10.2049 9.54691 10.2707 9.46942 10.3303C9.45078 10.3453 9.43287 10.3574 9.41533 10.3681C9.27498 10.4631 9.13536 10.5615 9.00123 10.6655C8.86709 10.7695 8.72674 10.8787 8.59553 10.9927C8.55314 11.0319 8.51184 11.0738 8.47382 11.1154C8.42485 11.1653 8.36783 11.2183 8.30935 11.2682ZM9.65326 13.1746C8.63501 12.8526 8.22273 11.1424 9.94566 10.4167C10.4844 10.1893 10.8809 10.3865 11.1741 10.8021C11.2267 10.5924 11.3203 10.4659 11.4263 10.3938C11.321 10.4659 11.226 10.5893 11.1741 10.8021C11.492 11.2544 11.6858 11.9698 11.7972 12.6793C11.8569 13.0808 11.8935 13.485 11.9069 13.8903C11.855 14.0889 11.814 14.231 11.8002 14.2916C11.8184 14.2338 11.8557 14.0924 11.9069 13.8903C11.958 13.6882 12.026 13.4279 12.09 13.1312C12.0271 13.4293 11.961 13.6886 11.9098 13.8906C11.9464 15.0226 11.7921 15.9439 11.4021 15.1692C10.8875 14.1558 10.2687 13.3725 9.65326 13.1749V13.1746ZM12.352 11.6402C12.3944 11.2936 12.3824 11.0388 12.3422 10.8482C12.3824 11.0388 12.3908 11.2942 12.352 11.6402C12.3122 11.968 12.2574 12.2963 12.2015 12.6068C12.2574 12.2966 12.3086 11.9694 12.352 11.6405V11.6402ZM10.2234 16.1702C10.2874 15.7217 10.6284 15.685 11.0834 16.1834C11.5385 16.6818 11.2037 17.7084 10.8641 17.7036C10.5246 17.6987 10.162 16.6166 10.2234 16.1706V16.1702ZM9.73733 18.1732C9.55593 18.039 9.40598 17.8704 9.297 17.6782C9.18802 17.486 9.12239 17.2744 9.1043 17.0568C9.08237 16.9182 9.26292 17.0568 9.49098 17.2301C9.60502 17.3168 9.72855 17.4121 9.84259 17.4845C10.1843 17.7039 10.3561 18.621 9.73733 18.1736V18.1732ZM8.7388 16.0652C8.71834 16.0597 8.69458 16.0548 8.67411 16.0489C8.66973 16.0465 8.66607 16.0472 8.66534 16.0437C8.64403 16.0383 8.62314 16.0315 8.60284 16.0233C8.58749 15.9661 8.5758 15.9082 8.56045 15.85C8.54509 15.7917 8.53303 15.7349 8.51768 15.6767C8.53998 15.6891 8.563 15.7047 8.5864 15.7207C8.62538 15.7492 8.6674 15.7739 8.71176 15.7942C8.73223 15.7997 8.74831 15.8066 8.76951 15.8122C8.79954 15.9082 8.83983 16.0012 8.88975 16.0895C8.84318 16.0837 8.79695 16.0757 8.75123 16.0655C8.74723 16.0642 8.74288 16.0641 8.7388 16.0652Z" fill="#FFF8F6"/>
<path fill-rule="evenodd" clip-rule="evenodd" d="M8.83374 13.3201C9.08373 13.4934 9.36552 13.6133 9.64622 13.7312L9.90206 13.841C9.86845 13.7717 9.82664 13.7063 9.77743 13.6459C9.50624 13.3395 8.90025 12.9818 8.50626 12.9874C8.59035 13.1183 8.70179 13.2315 8.83374 13.3201ZM8.79719 15.0531C8.99521 15.1681 9.20305 15.2671 9.41852 15.3491C9.49381 15.3775 9.5713 15.398 9.64914 15.4219C9.79657 15.4598 9.9396 15.5117 10.076 15.5768C10.1064 15.4301 10.1234 15.2812 10.1268 15.1318C10.0132 15.1023 9.89695 15.0767 9.78438 15.0503C9.4675 14.981 9.155 14.9117 8.88271 14.7287C8.45728 14.4386 8.28331 13.919 8.19742 13.4463C8.18645 13.3915 8.17914 13.336 8.17147 13.2806C8.14296 13.7093 8.51868 14.5415 8.51868 14.5415C8.51868 14.5415 8.54609 14.6996 8.58374 14.9086C8.64796 14.9649 8.71914 15.0137 8.79572 15.0538L8.79719 15.0531ZM8.65501 15.2808C8.6795 15.4143 8.70435 15.5477 8.73067 15.6597C8.74071 15.7108 8.75426 15.7613 8.77124 15.8108C8.80131 15.9068 8.8416 15.9997 8.89148 16.0881C8.90318 16.0881 8.91122 16.0905 8.92255 16.0912C8.91122 16.0912 8.90318 16.0888 8.89148 16.0881C9.06546 16.3965 9.36662 16.617 9.76208 16.2385C9.9207 16.0853 10.0216 15.8572 10.0786 15.5928C10.0786 15.5893 10.0812 15.5886 10.0786 15.5851C10.076 15.5817 10.0815 15.581 10.0786 15.5775C9.94629 15.5061 9.79973 15.4663 9.65243 15.4233C9.57422 15.3994 9.49345 15.3796 9.41779 15.3515C9.2019 15.2709 8.99397 15.1724 8.79645 15.0569C8.72123 15.0146 8.65017 14.966 8.5841 14.9117L8.58776 14.9394C8.60859 15.0455 8.62833 15.1609 8.65355 15.2815L8.65501 15.2808ZM8.92584 16.0967C8.93022 16.0995 8.93717 16.0967 8.94155 16.1002C9.22006 16.1255 9.54023 16.1231 9.80119 16.0135C9.80448 16.0135 9.80375 16.0094 9.80119 16.0059H9.7979C9.80229 16.0087 9.7979 16.0128 9.79607 16.0135C9.53511 16.1234 9.21531 16.1258 8.9368 16.1002C8.93353 16.0981 8.92975 16.0969 8.92584 16.0967ZM9.05047 15.8735C8.96029 15.8609 8.87104 15.8429 8.7833 15.8194C8.87089 15.8431 8.96018 15.8607 9.05047 15.8721V15.8735ZM8.83118 15.372C8.98752 15.4368 9.14849 15.491 9.31289 15.5342C9.31728 15.5366 9.32422 15.5342 9.32861 15.5377C9.32422 15.5349 9.31728 15.5377 9.31289 15.5342C9.14841 15.4913 8.98762 15.4366 8.83191 15.3706L8.83118 15.372Z" fill="#FFF8F6"/>
<mask id="path-86-outside-1_3550_75726" maskUnits="userSpaceOnUse" x="10.0684" y="8.75439" width="6" height="11" fill="black">
<rect fill="white" x="10.0684" y="8.75439" width="6" height="11"/>
<path fill-rule="evenodd" clip-rule="evenodd" d="M15.2947 11.6455C15.3386 11.7814 15.3839 11.9207 15.4175 12.0594C15.4837 12.3218 15.5267 12.5891 15.5462 12.8583C15.5798 13.3616 15.5312 13.8669 15.3656 14.3438L15.3631 14.348C15.3612 14.3556 15.3558 14.3639 15.3543 14.3716C15.3528 14.3792 15.3481 14.391 15.3437 14.4027C15.2651 14.6149 15.1975 14.828 15.1398 15.046C15.0866 15.0909 15.0294 15.1311 14.9687 15.1663C14.752 15.2982 14.5164 15.3999 14.2692 15.4682C14.0133 15.541 13.7169 15.6165 13.4479 15.5562V15.5531V15.5562C13.7169 15.6165 14.0097 15.5417 14.2692 15.4682C14.517 15.4015 14.7529 15.2997 14.9687 15.1663C15.0268 15.1316 15.0835 15.0883 15.1398 15.046C15.0871 15.2412 15.0385 15.4391 14.9936 15.6353C14.9665 15.7455 14.9442 15.8585 14.9172 15.9687C14.8092 16.0057 14.6969 16.0305 14.5827 16.0425C14.3108 16.0692 14.0049 16.0682 13.7516 15.9687V15.9652C13.7483 15.9652 13.7491 15.9694 13.7516 15.9718C14.0075 16.0758 14.3145 16.0716 14.5827 16.046C14.697 16.0339 14.8094 16.009 14.9175 15.9718L14.8656 16.2106C14.7278 16.8057 14.5645 17.4178 14.2041 17.9273C13.9007 18.355 13.4541 18.6996 12.998 18.9709C12.7593 19.116 12.5043 19.2354 12.2378 19.3269C12.2067 19.338 12.1712 19.3467 12.1402 19.3578L12.1226 19.3619L12.1047 19.3661L12.0375 19.3824L12.0009 19.391L11.9585 19.4014L11.9161 19.4118H11.9125C11.9556 19.3193 12.0645 18.9959 11.5437 18.911C11.442 18.8971 11.3433 18.8678 11.2513 18.8243C10.9677 18.6819 11.2783 18.5744 11.422 18.6039C12.0894 18.7425 13.0301 18.5145 13.1928 18.3855C13.3861 18.2351 13.4589 17.9457 13.532 17.6702C13.5605 17.5396 13.6004 17.4115 13.6511 17.2872C13.6668 17.2735 13.6837 17.2611 13.7015 17.2501C13.7661 17.2082 13.8348 17.1723 13.9066 17.143C13.9951 17.1051 14.0784 17.0573 14.1548 17.0005C14.1893 16.9738 14.2178 16.9407 14.2384 16.9033C14.2591 16.8658 14.2715 16.8248 14.2749 16.7827C14.2783 16.7405 14.2727 16.6982 14.2583 16.6582C14.2439 16.6182 14.2211 16.5813 14.1913 16.5499C14.0542 16.4044 13.8328 16.4654 13.6796 16.5593C13.5 16.6711 13.3618 16.8336 13.2845 17.0237C13.248 17.1097 13.2161 17.1974 13.1891 17.2865C13.1548 17.4099 13.1107 17.5308 13.0572 17.648C13.006 17.7534 12.9294 17.8459 12.8336 17.9181C12.7378 17.9904 12.6255 18.0403 12.5057 18.0639C12.4903 18.068 12.4745 18.0706 12.4585 18.0715L12.441 18.0757L12.4267 18.0791L12.4125 18.0826H12.3905L12.3682 18.0847C12.3664 18.0855 12.3644 18.0859 12.3624 18.0859C12.3604 18.0859 12.3584 18.0855 12.3565 18.0847C12.3548 18.0855 12.3528 18.086 12.3509 18.086C12.3489 18.086 12.347 18.0855 12.3452 18.0847L12.3346 18.0871C12.3328 18.088 12.3308 18.0884 12.3288 18.0884C12.3267 18.0884 12.3247 18.088 12.3229 18.0871C12.3196 18.0871 12.3149 18.0871 12.3116 18.0871C12.3097 18.0879 12.3078 18.0883 12.3057 18.0883C12.3037 18.0883 12.3017 18.0879 12.2999 18.0871H12.2962C12.2893 18.0888 12.2849 18.0871 12.278 18.0871L12.2546 18.0854C12.2513 18.0854 12.2469 18.0854 12.2432 18.0854C12.2414 18.0862 12.2394 18.0866 12.2374 18.0866C12.2354 18.0866 12.2334 18.0862 12.2315 18.0854C12.2283 18.0854 12.2239 18.0836 12.2202 18.0854C12.2166 18.0871 12.2122 18.0836 12.2085 18.0854C12.2049 18.0871 12.1972 18.0854 12.1935 18.0854H12.1899C12.1822 18.0836 12.1749 18.0854 12.1669 18.0854C12.1641 18.0855 12.1613 18.0849 12.1588 18.0836C12.1563 18.0844 12.1536 18.0844 12.1511 18.0836C12.1424 18.0815 12.1332 18.0815 12.1245 18.0836L12.1047 18.0812C12.1014 18.0812 12.097 18.0795 12.0934 18.0812C12.0897 18.083 12.0853 18.0795 12.0817 18.0812C12.0755 18.079 12.0689 18.0783 12.0623 18.0791C12.0579 18.0764 12.0543 18.0791 12.0499 18.075C12.0455 18.0708 12.0419 18.075 12.0375 18.0708C12.0347 18.071 12.0319 18.0704 12.0294 18.0691C12.0266 18.0693 12.0238 18.0687 12.0214 18.0674L11.9976 18.0625C11.9948 18.0627 11.992 18.0621 11.9896 18.0608C11.9868 18.0612 11.9839 18.0606 11.9815 18.059L11.9574 18.0542C11.9498 18.0542 11.945 18.05 11.9381 18.0518L11.9139 18.0469C11.9063 18.0469 11.9015 18.0427 11.8938 18.041C11.8862 18.0393 11.8858 18.041 11.8821 18.041C11.8803 18.0402 11.8783 18.0397 11.8763 18.0397C11.8743 18.0397 11.8723 18.0402 11.8704 18.041C11.8661 18.0386 11.8628 18.0393 11.858 18.0369C11.8533 18.0344 11.8503 18.0351 11.8456 18.0327C11.8408 18.0303 11.8412 18.0303 11.8379 18.031C11.8346 18.0317 11.8332 18.0285 11.8299 18.031L11.8014 18.0233C11.7965 18.0218 11.7912 18.0218 11.7864 18.0233C11.782 18.0209 11.7783 18.0233 11.7714 18.0233L11.7498 18.0282L11.7286 18.0334L11.7217 18.0351L11.7147 18.0369L11.7005 18.0403L11.6862 18.0438L11.6756 18.0462L11.665 18.049L11.6544 18.0514L11.6438 18.0542L11.6226 18.0594L11.6153 18.0611H11.6084L11.5835 18.0674L11.5766 18.0691L11.5693 18.0708L11.5411 18.0778H11.5375H11.5338C11.4973 18.0861 11.4658 18.0906 11.4293 18.0958H11.426H11.4223C11.4117 18.0982 11.4001 18.0975 11.3895 18.1003H11.3862H11.3825C11.3777 18.102 11.3724 18.102 11.3675 18.1003C11.3627 18.1018 11.3574 18.1018 11.3525 18.1003H11.3489H11.3452C11.3404 18.1018 11.3351 18.1018 11.3302 18.1003C11.3279 18.1012 11.3253 18.1017 11.3228 18.1017C11.3202 18.1017 11.3176 18.1012 11.3153 18.1003H11.3116H11.3079C11.2969 18.1 11.2859 18.1016 11.2754 18.1048C11.2512 18.1009 11.2268 18.0985 11.2023 18.0975C11.1873 18.0975 11.1713 18.0944 11.1563 18.0944C11.0053 18.0379 11.0514 17.9017 11.2743 17.7904C11.3175 17.7693 11.3679 17.7461 11.4205 17.7266C11.6336 17.6355 11.8803 17.5291 11.8843 17.292C12.3284 18.0861 12.7926 17.5263 12.6325 16.864C12.5682 16.5967 12.4468 16.4404 12.324 16.3486C12.3102 16.33 12.2919 16.3148 12.2707 16.3042V16.3007V16.2973L12.2615 16.2924C12.2571 16.29 12.2535 16.2907 12.2527 16.2876L12.244 16.2824C12.2392 16.2799 12.2359 16.2824 12.2348 16.2775L12.2261 16.2723C12.2242 16.2727 12.2223 16.2725 12.2206 16.2716C12.219 16.2707 12.2178 16.2692 12.2173 16.2675C12.2092 16.2657 12.2038 16.2598 12.1957 16.2581L12.1913 16.2557L12.187 16.2532C12.1789 16.2515 12.1745 16.2491 12.1665 16.2474C12.1584 16.2456 12.1584 16.2474 12.1552 16.2474C12.1463 16.246 12.1378 16.2432 12.1299 16.239C12.0796 16.2224 12.0264 16.2148 11.9731 16.2165C11.9731 16.2165 11.9731 15.9164 12.2129 14.7414C12.3226 14.2104 12.4965 13.9321 12.6811 13.6371C12.8188 13.4281 12.9363 13.2077 13.032 12.9786H13.0356C13.1362 12.7181 13.2105 12.4492 13.2575 12.1755C13.4037 12.0216 13.5619 11.9048 13.707 11.884C13.5608 11.9048 13.4073 12.0174 13.2575 12.1755C13.2611 12.1602 13.2611 12.146 13.2644 12.1308C13.2695 12.0937 13.2783 12.0559 13.2834 12.0188C13.5393 10.422 11.729 9.76592 11.729 9.76592C12.0579 9.72572 12.4048 9.79538 12.7158 9.90214C12.7295 9.90775 12.7444 9.91025 12.7593 9.90941C12.7828 9.91544 12.8077 9.91433 12.8305 9.90625C12.8533 9.89817 12.8729 9.88352 12.8865 9.86436C12.892 9.85604 12.9008 9.84668 12.9059 9.83801C12.911 9.82935 12.9201 9.82034 12.9252 9.81202C13.0761 9.83962 13.2243 9.87903 13.3682 9.92986L13.3711 9.93991C13.3713 9.94183 13.372 9.94368 13.3731 9.9453C13.3741 9.94693 13.3756 9.94829 13.3774 9.94927C13.3891 9.96452 13.4442 9.98671 13.5276 10.0165C13.6522 10.0593 13.7742 10.1088 13.8931 10.1645C13.824 10.1453 13.7517 10.1385 13.68 10.1444C13.673 10.1444 13.6712 10.1538 13.68 10.1555C13.7626 10.1676 13.8594 10.2335 13.9413 10.2851C13.959 10.2984 13.9774 10.3106 13.9965 10.3219C14.1427 10.412 14.2812 10.5104 14.4175 10.6099C14.5539 10.7094 14.696 10.8179 14.8287 10.9322C14.8733 10.9714 14.9186 11.014 14.9643 11.0567C15.0159 11.1087 15.071 11.1606 15.1248 11.204C15.1336 11.2116 15.1442 11.2173 15.1556 11.2205C15.1671 11.2237 15.1792 11.2245 15.191 11.2226C15.2029 11.2208 15.2141 11.2165 15.2239 11.2099C15.2337 11.2034 15.2418 11.1948 15.2476 11.1849L15.2925 11.2955V11.2924C15.2746 11.2535 15.2092 11.2768 15.2194 11.3204C15.2316 11.4311 15.2569 11.5402 15.2947 11.6455ZM15.3638 12.6306C15.3443 12.5046 15.3159 12.38 15.2786 12.2576C15.2391 12.139 15.1867 12.0246 15.1222 11.9162C15.1091 11.8944 15.0992 11.8719 15.0857 11.8469C15.0857 11.8434 15.0813 11.8441 15.0824 11.8469C15.1171 11.9605 15.1433 12.0764 15.1606 12.1935C15.1642 12.2212 15.1716 12.2483 15.1752 12.276C15.1789 12.2892 15.1796 12.3069 15.1832 12.3204C15.1832 12.327 15.1832 12.3346 15.1862 12.3446C15.1802 12.3823 15.1766 12.4203 15.1752 12.4583C15.1752 12.4836 15.1712 12.5131 15.1705 12.538C15.1592 12.6273 15.1358 12.7147 15.101 12.7983C15.0283 12.9601 14.9154 13.1028 14.7721 13.2143C14.5206 13.4149 14.2173 13.5491 13.9212 13.6818C13.854 13.7123 13.7831 13.7439 13.7158 13.7747C13.2933 13.9702 12.9285 14.2121 12.6559 14.5896C12.5044 14.8021 12.3918 15.0374 12.3229 15.2855C12.2666 15.4817 12.2005 15.7122 12.2334 15.9188C12.2154 16.0102 12.2115 16.1036 12.2217 16.1961C12.2222 16.1991 12.2238 16.2018 12.2263 16.2037C12.2287 16.2057 12.2318 16.2068 12.235 16.2068C12.2382 16.2068 12.2413 16.2057 12.2438 16.2037C12.2462 16.2018 12.2478 16.1991 12.2484 16.1961C12.2722 16.0867 12.3137 15.9814 12.3715 15.8841C12.4309 15.7914 12.498 15.7033 12.5722 15.6207C12.7282 15.4436 12.9347 15.3147 13.1478 15.2093C13.3609 15.1039 13.5948 15.0474 13.8284 14.9906C14.0762 14.9306 14.3232 14.8672 14.5557 14.75C15.055 14.4894 15.2436 13.957 15.3455 13.4531C15.3993 13.1817 15.4055 12.9038 15.3638 12.6306Z"/>
</mask>
<path fill-rule="evenodd" clip-rule="evenodd" d="M15.2947 11.6455C15.3386 11.7814 15.3839 11.9207 15.4175 12.0594C15.4837 12.3218 15.5267 12.5891 15.5462 12.8583C15.5798 13.3616 15.5312 13.8669 15.3656 14.3438L15.3631 14.348C15.3612 14.3556 15.3558 14.3639 15.3543 14.3716C15.3528 14.3792 15.3481 14.391 15.3437 14.4027C15.2651 14.6149 15.1975 14.828 15.1398 15.046C15.0866 15.0909 15.0294 15.1311 14.9687 15.1663C14.752 15.2982 14.5164 15.3999 14.2692 15.4682C14.0133 15.541 13.7169 15.6165 13.4479 15.5562V15.5531V15.5562C13.7169 15.6165 14.0097 15.5417 14.2692 15.4682C14.517 15.4015 14.7529 15.2997 14.9687 15.1663C15.0268 15.1316 15.0835 15.0883 15.1398 15.046C15.0871 15.2412 15.0385 15.4391 14.9936 15.6353C14.9665 15.7455 14.9442 15.8585 14.9172 15.9687C14.8092 16.0057 14.6969 16.0305 14.5827 16.0425C14.3108 16.0692 14.0049 16.0682 13.7516 15.9687V15.9652C13.7483 15.9652 13.7491 15.9694 13.7516 15.9718C14.0075 16.0758 14.3145 16.0716 14.5827 16.046C14.697 16.0339 14.8094 16.009 14.9175 15.9718L14.8656 16.2106C14.7278 16.8057 14.5645 17.4178 14.2041 17.9273C13.9007 18.355 13.4541 18.6996 12.998 18.9709C12.7593 19.116 12.5043 19.2354 12.2378 19.3269C12.2067 19.338 12.1712 19.3467 12.1402 19.3578L12.1226 19.3619L12.1047 19.3661L12.0375 19.3824L12.0009 19.391L11.9585 19.4014L11.9161 19.4118H11.9125C11.9556 19.3193 12.0645 18.9959 11.5437 18.911C11.442 18.8971 11.3433 18.8678 11.2513 18.8243C10.9677 18.6819 11.2783 18.5744 11.422 18.6039C12.0894 18.7425 13.0301 18.5145 13.1928 18.3855C13.3861 18.2351 13.4589 17.9457 13.532 17.6702C13.5605 17.5396 13.6004 17.4115 13.6511 17.2872C13.6668 17.2735 13.6837 17.2611 13.7015 17.2501C13.7661 17.2082 13.8348 17.1723 13.9066 17.143C13.9951 17.1051 14.0784 17.0573 14.1548 17.0005C14.1893 16.9738 14.2178 16.9407 14.2384 16.9033C14.2591 16.8658 14.2715 16.8248 14.2749 16.7827C14.2783 16.7405 14.2727 16.6982 14.2583 16.6582C14.2439 16.6182 14.2211 16.5813 14.1913 16.5499C14.0542 16.4044 13.8328 16.4654 13.6796 16.5593C13.5 16.6711 13.3618 16.8336 13.2845 17.0237C13.248 17.1097 13.2161 17.1974 13.1891 17.2865C13.1548 17.4099 13.1107 17.5308 13.0572 17.648C13.006 17.7534 12.9294 17.8459 12.8336 17.9181C12.7378 17.9904 12.6255 18.0403 12.5057 18.0639C12.4903 18.068 12.4745 18.0706 12.4585 18.0715L12.441 18.0757L12.4267 18.0791L12.4125 18.0826H12.3905L12.3682 18.0847C12.3664 18.0855 12.3644 18.0859 12.3624 18.0859C12.3604 18.0859 12.3584 18.0855 12.3565 18.0847C12.3548 18.0855 12.3528 18.086 12.3509 18.086C12.3489 18.086 12.347 18.0855 12.3452 18.0847L12.3346 18.0871C12.3328 18.088 12.3308 18.0884 12.3288 18.0884C12.3267 18.0884 12.3247 18.088 12.3229 18.0871C12.3196 18.0871 12.3149 18.0871 12.3116 18.0871C12.3097 18.0879 12.3078 18.0883 12.3057 18.0883C12.3037 18.0883 12.3017 18.0879 12.2999 18.0871H12.2962C12.2893 18.0888 12.2849 18.0871 12.278 18.0871L12.2546 18.0854C12.2513 18.0854 12.2469 18.0854 12.2432 18.0854C12.2414 18.0862 12.2394 18.0866 12.2374 18.0866C12.2354 18.0866 12.2334 18.0862 12.2315 18.0854C12.2283 18.0854 12.2239 18.0836 12.2202 18.0854C12.2166 18.0871 12.2122 18.0836 12.2085 18.0854C12.2049 18.0871 12.1972 18.0854 12.1935 18.0854H12.1899C12.1822 18.0836 12.1749 18.0854 12.1669 18.0854C12.1641 18.0855 12.1613 18.0849 12.1588 18.0836C12.1563 18.0844 12.1536 18.0844 12.1511 18.0836C12.1424 18.0815 12.1332 18.0815 12.1245 18.0836L12.1047 18.0812C12.1014 18.0812 12.097 18.0795 12.0934 18.0812C12.0897 18.083 12.0853 18.0795 12.0817 18.0812C12.0755 18.079 12.0689 18.0783 12.0623 18.0791C12.0579 18.0764 12.0543 18.0791 12.0499 18.075C12.0455 18.0708 12.0419 18.075 12.0375 18.0708C12.0347 18.071 12.0319 18.0704 12.0294 18.0691C12.0266 18.0693 12.0238 18.0687 12.0214 18.0674L11.9976 18.0625C11.9948 18.0627 11.992 18.0621 11.9896 18.0608C11.9868 18.0612 11.9839 18.0606 11.9815 18.059L11.9574 18.0542C11.9498 18.0542 11.945 18.05 11.9381 18.0518L11.9139 18.0469C11.9063 18.0469 11.9015 18.0427 11.8938 18.041C11.8862 18.0393 11.8858 18.041 11.8821 18.041C11.8803 18.0402 11.8783 18.0397 11.8763 18.0397C11.8743 18.0397 11.8723 18.0402 11.8704 18.041C11.8661 18.0386 11.8628 18.0393 11.858 18.0369C11.8533 18.0344 11.8503 18.0351 11.8456 18.0327C11.8408 18.0303 11.8412 18.0303 11.8379 18.031C11.8346 18.0317 11.8332 18.0285 11.8299 18.031L11.8014 18.0233C11.7965 18.0218 11.7912 18.0218 11.7864 18.0233C11.782 18.0209 11.7783 18.0233 11.7714 18.0233L11.7498 18.0282L11.7286 18.0334L11.7217 18.0351L11.7147 18.0369L11.7005 18.0403L11.6862 18.0438L11.6756 18.0462L11.665 18.049L11.6544 18.0514L11.6438 18.0542L11.6226 18.0594L11.6153 18.0611H11.6084L11.5835 18.0674L11.5766 18.0691L11.5693 18.0708L11.5411 18.0778H11.5375H11.5338C11.4973 18.0861 11.4658 18.0906 11.4293 18.0958H11.426H11.4223C11.4117 18.0982 11.4001 18.0975 11.3895 18.1003H11.3862H11.3825C11.3777 18.102 11.3724 18.102 11.3675 18.1003C11.3627 18.1018 11.3574 18.1018 11.3525 18.1003H11.3489H11.3452C11.3404 18.1018 11.3351 18.1018 11.3302 18.1003C11.3279 18.1012 11.3253 18.1017 11.3228 18.1017C11.3202 18.1017 11.3176 18.1012 11.3153 18.1003H11.3116H11.3079C11.2969 18.1 11.2859 18.1016 11.2754 18.1048C11.2512 18.1009 11.2268 18.0985 11.2023 18.0975C11.1873 18.0975 11.1713 18.0944 11.1563 18.0944C11.0053 18.0379 11.0514 17.9017 11.2743 17.7904C11.3175 17.7693 11.3679 17.7461 11.4205 17.7266C11.6336 17.6355 11.8803 17.5291 11.8843 17.292C12.3284 18.0861 12.7926 17.5263 12.6325 16.864C12.5682 16.5967 12.4468 16.4404 12.324 16.3486C12.3102 16.33 12.2919 16.3148 12.2707 16.3042V16.3007V16.2973L12.2615 16.2924C12.2571 16.29 12.2535 16.2907 12.2527 16.2876L12.244 16.2824C12.2392 16.2799 12.2359 16.2824 12.2348 16.2775L12.2261 16.2723C12.2242 16.2727 12.2223 16.2725 12.2206 16.2716C12.219 16.2707 12.2178 16.2692 12.2173 16.2675C12.2092 16.2657 12.2038 16.2598 12.1957 16.2581L12.1913 16.2557L12.187 16.2532C12.1789 16.2515 12.1745 16.2491 12.1665 16.2474C12.1584 16.2456 12.1584 16.2474 12.1552 16.2474C12.1463 16.246 12.1378 16.2432 12.1299 16.239C12.0796 16.2224 12.0264 16.2148 11.9731 16.2165C11.9731 16.2165 11.9731 15.9164 12.2129 14.7414C12.3226 14.2104 12.4965 13.9321 12.6811 13.6371C12.8188 13.4281 12.9363 13.2077 13.032 12.9786H13.0356C13.1362 12.7181 13.2105 12.4492 13.2575 12.1755C13.4037 12.0216 13.5619 11.9048 13.707 11.884C13.5608 11.9048 13.4073 12.0174 13.2575 12.1755C13.2611 12.1602 13.2611 12.146 13.2644 12.1308C13.2695 12.0937 13.2783 12.0559 13.2834 12.0188C13.5393 10.422 11.729 9.76592 11.729 9.76592C12.0579 9.72572 12.4048 9.79538 12.7158 9.90214C12.7295 9.90775 12.7444 9.91025 12.7593 9.90941C12.7828 9.91544 12.8077 9.91433 12.8305 9.90625C12.8533 9.89817 12.8729 9.88352 12.8865 9.86436C12.892 9.85604 12.9008 9.84668 12.9059 9.83801C12.911 9.82935 12.9201 9.82034 12.9252 9.81202C13.0761 9.83962 13.2243 9.87903 13.3682 9.92986L13.3711 9.93991C13.3713 9.94183 13.372 9.94368 13.3731 9.9453C13.3741 9.94693 13.3756 9.94829 13.3774 9.94927C13.3891 9.96452 13.4442 9.98671 13.5276 10.0165C13.6522 10.0593 13.7742 10.1088 13.8931 10.1645C13.824 10.1453 13.7517 10.1385 13.68 10.1444C13.673 10.1444 13.6712 10.1538 13.68 10.1555C13.7626 10.1676 13.8594 10.2335 13.9413 10.2851C13.959 10.2984 13.9774 10.3106 13.9965 10.3219C14.1427 10.412 14.2812 10.5104 14.4175 10.6099C14.5539 10.7094 14.696 10.8179 14.8287 10.9322C14.8733 10.9714 14.9186 11.014 14.9643 11.0567C15.0159 11.1087 15.071 11.1606 15.1248 11.204C15.1336 11.2116 15.1442 11.2173 15.1556 11.2205C15.1671 11.2237 15.1792 11.2245 15.191 11.2226C15.2029 11.2208 15.2141 11.2165 15.2239 11.2099C15.2337 11.2034 15.2418 11.1948 15.2476 11.1849L15.2925 11.2955V11.2924C15.2746 11.2535 15.2092 11.2768 15.2194 11.3204C15.2316 11.4311 15.2569 11.5402 15.2947 11.6455ZM15.3638 12.6306C15.3443 12.5046 15.3159 12.38 15.2786 12.2576C15.2391 12.139 15.1867 12.0246 15.1222 11.9162C15.1091 11.8944 15.0992 11.8719 15.0857 11.8469C15.0857 11.8434 15.0813 11.8441 15.0824 11.8469C15.1171 11.9605 15.1433 12.0764 15.1606 12.1935C15.1642 12.2212 15.1716 12.2483 15.1752 12.276C15.1789 12.2892 15.1796 12.3069 15.1832 12.3204C15.1832 12.327 15.1832 12.3346 15.1862 12.3446C15.1802 12.3823 15.1766 12.4203 15.1752 12.4583C15.1752 12.4836 15.1712 12.5131 15.1705 12.538C15.1592 12.6273 15.1358 12.7147 15.101 12.7983C15.0283 12.9601 14.9154 13.1028 14.7721 13.2143C14.5206 13.4149 14.2173 13.5491 13.9212 13.6818C13.854 13.7123 13.7831 13.7439 13.7158 13.7747C13.2933 13.9702 12.9285 14.2121 12.6559 14.5896C12.5044 14.8021 12.3918 15.0374 12.3229 15.2855C12.2666 15.4817 12.2005 15.7122 12.2334 15.9188C12.2154 16.0102 12.2115 16.1036 12.2217 16.1961C12.2222 16.1991 12.2238 16.2018 12.2263 16.2037C12.2287 16.2057 12.2318 16.2068 12.235 16.2068C12.2382 16.2068 12.2413 16.2057 12.2438 16.2037C12.2462 16.2018 12.2478 16.1991 12.2484 16.1961C12.2722 16.0867 12.3137 15.9814 12.3715 15.8841C12.4309 15.7914 12.498 15.7033 12.5722 15.6207C12.7282 15.4436 12.9347 15.3147 13.1478 15.2093C13.3609 15.1039 13.5948 15.0474 13.8284 14.9906C14.0762 14.9306 14.3232 14.8672 14.5557 14.75C15.055 14.4894 15.2436 13.957 15.3455 13.4531C15.3993 13.1817 15.4055 12.9038 15.3638 12.6306Z" fill="#FFF8F6"/>
<path fill-rule="evenodd" clip-rule="evenodd" d="M15.2947 11.6455C15.3386 11.7814 15.3839 11.9207 15.4175 12.0594C15.4837 12.3218 15.5267 12.5891 15.5462 12.8583C15.5798 13.3616 15.5312 13.8669 15.3656 14.3438L15.3631 14.348C15.3612 14.3556 15.3558 14.3639 15.3543 14.3716C15.3528 14.3792 15.3481 14.391 15.3437 14.4027C15.2651 14.6149 15.1975 14.828 15.1398 15.046C15.0866 15.0909 15.0294 15.1311 14.9687 15.1663C14.752 15.2982 14.5164 15.3999 14.2692 15.4682C14.0133 15.541 13.7169 15.6165 13.4479 15.5562V15.5531V15.5562C13.7169 15.6165 14.0097 15.5417 14.2692 15.4682C14.517 15.4015 14.7529 15.2997 14.9687 15.1663C15.0268 15.1316 15.0835 15.0883 15.1398 15.046C15.0871 15.2412 15.0385 15.4391 14.9936 15.6353C14.9665 15.7455 14.9442 15.8585 14.9172 15.9687C14.8092 16.0057 14.6969 16.0305 14.5827 16.0425C14.3108 16.0692 14.0049 16.0682 13.7516 15.9687V15.9652C13.7483 15.9652 13.7491 15.9694 13.7516 15.9718C14.0075 16.0758 14.3145 16.0716 14.5827 16.046C14.697 16.0339 14.8094 16.009 14.9175 15.9718L14.8656 16.2106C14.7278 16.8057 14.5645 17.4178 14.2041 17.9273C13.9007 18.355 13.4541 18.6996 12.998 18.9709C12.7593 19.116 12.5043 19.2354 12.2378 19.3269C12.2067 19.338 12.1712 19.3467 12.1402 19.3578L12.1226 19.3619L12.1047 19.3661L12.0375 19.3824L12.0009 19.391L11.9585 19.4014L11.9161 19.4118H11.9125C11.9556 19.3193 12.0645 18.9959 11.5437 18.911C11.442 18.8971 11.3433 18.8678 11.2513 18.8243C10.9677 18.6819 11.2783 18.5744 11.422 18.6039C12.0894 18.7425 13.0301 18.5145 13.1928 18.3855C13.3861 18.2351 13.4589 17.9457 13.532 17.6702C13.5605 17.5396 13.6004 17.4115 13.6511 17.2872C13.6668 17.2735 13.6837 17.2611 13.7015 17.2501C13.7661 17.2082 13.8348 17.1723 13.9066 17.143C13.9951 17.1051 14.0784 17.0573 14.1548 17.0005C14.1893 16.9738 14.2178 16.9407 14.2384 16.9033C14.2591 16.8658 14.2715 16.8248 14.2749 16.7827C14.2783 16.7405 14.2727 16.6982 14.2583 16.6582C14.2439 16.6182 14.2211 16.5813 14.1913 16.5499C14.0542 16.4044 13.8328 16.4654 13.6796 16.5593C13.5 16.6711 13.3618 16.8336 13.2845 17.0237C13.248 17.1097 13.2161 17.1974 13.1891 17.2865C13.1548 17.4099 13.1107 17.5308 13.0572 17.648C13.006 17.7534 12.9294 17.8459 12.8336 17.9181C12.7378 17.9904 12.6255 18.0403 12.5057 18.0639C12.4903 18.068 12.4745 18.0706 12.4585 18.0715L12.441 18.0757L12.4267 18.0791L12.4125 18.0826H12.3905L12.3682 18.0847C12.3664 18.0855 12.3644 18.0859 12.3624 18.0859C12.3604 18.0859 12.3584 18.0855 12.3565 18.0847C12.3548 18.0855 12.3528 18.086 12.3509 18.086C12.3489 18.086 12.347 18.0855 12.3452 18.0847L12.3346 18.0871C12.3328 18.088 12.3308 18.0884 12.3288 18.0884C12.3267 18.0884 12.3247 18.088 12.3229 18.0871C12.3196 18.0871 12.3149 18.0871 12.3116 18.0871C12.3097 18.0879 12.3078 18.0883 12.3057 18.0883C12.3037 18.0883 12.3017 18.0879 12.2999 18.0871H12.2962C12.2893 18.0888 12.2849 18.0871 12.278 18.0871L12.2546 18.0854C12.2513 18.0854 12.2469 18.0854 12.2432 18.0854C12.2414 18.0862 12.2394 18.0866 12.2374 18.0866C12.2354 18.0866 12.2334 18.0862 12.2315 18.0854C12.2283 18.0854 12.2239 18.0836 12.2202 18.0854C12.2166 18.0871 12.2122 18.0836 12.2085 18.0854C12.2049 18.0871 12.1972 18.0854 12.1935 18.0854H12.1899C12.1822 18.0836 12.1749 18.0854 12.1669 18.0854C12.1641 18.0855 12.1613 18.0849 12.1588 18.0836C12.1563 18.0844 12.1536 18.0844 12.1511 18.0836C12.1424 18.0815 12.1332 18.0815 12.1245 18.0836L12.1047 18.0812C12.1014 18.0812 12.097 18.0795 12.0934 18.0812C12.0897 18.083 12.0853 18.0795 12.0817 18.0812C12.0755 18.079 12.0689 18.0783 12.0623 18.0791C12.0579 18.0764 12.0543 18.0791 12.0499 18.075C12.0455 18.0708 12.0419 18.075 12.0375 18.0708C12.0347 18.071 12.0319 18.0704 12.0294 18.0691C12.0266 18.0693 12.0238 18.0687 12.0214 18.0674L11.9976 18.0625C11.9948 18.0627 11.992 18.0621 11.9896 18.0608C11.9868 18.0612 11.9839 18.0606 11.9815 18.059L11.9574 18.0542C11.9498 18.0542 11.945 18.05 11.9381 18.0518L11.9139 18.0469C11.9063 18.0469 11.9015 18.0427 11.8938 18.041C11.8862 18.0393 11.8858 18.041 11.8821 18.041C11.8803 18.0402 11.8783 18.0397 11.8763 18.0397C11.8743 18.0397 11.8723 18.0402 11.8704 18.041C11.8661 18.0386 11.8628 18.0393 11.858 18.0369C11.8533 18.0344 11.8503 18.0351 11.8456 18.0327C11.8408 18.0303 11.8412 18.0303 11.8379 18.031C11.8346 18.0317 11.8332 18.0285 11.8299 18.031L11.8014 18.0233C11.7965 18.0218 11.7912 18.0218 11.7864 18.0233C11.782 18.0209 11.7783 18.0233 11.7714 18.0233L11.7498 18.0282L11.7286 18.0334L11.7217 18.0351L11.7147 18.0369L11.7005 18.0403L11.6862 18.0438L11.6756 18.0462L11.665 18.049L11.6544 18.0514L11.6438 18.0542L11.6226 18.0594L11.6153 18.0611H11.6084L11.5835 18.0674L11.5766 18.0691L11.5693 18.0708L11.5411 18.0778H11.5375H11.5338C11.4973 18.0861 11.4658 18.0906 11.4293 18.0958H11.426H11.4223C11.4117 18.0982 11.4001 18.0975 11.3895 18.1003H11.3862H11.3825C11.3777 18.102 11.3724 18.102 11.3675 18.1003C11.3627 18.1018 11.3574 18.1018 11.3525 18.1003H11.3489H11.3452C11.3404 18.1018 11.3351 18.1018 11.3302 18.1003C11.3279 18.1012 11.3253 18.1017 11.3228 18.1017C11.3202 18.1017 11.3176 18.1012 11.3153 18.1003H11.3116H11.3079C11.2969 18.1 11.2859 18.1016 11.2754 18.1048C11.2512 18.1009 11.2268 18.0985 11.2023 18.0975C11.1873 18.0975 11.1713 18.0944 11.1563 18.0944C11.0053 18.0379 11.0514 17.9017 11.2743 17.7904C11.3175 17.7693 11.3679 17.7461 11.4205 17.7266C11.6336 17.6355 11.8803 17.5291 11.8843 17.292C12.3284 18.0861 12.7926 17.5263 12.6325 16.864C12.5682 16.5967 12.4468 16.4404 12.324 16.3486C12.3102 16.33 12.2919 16.3148 12.2707 16.3042V16.3007V16.2973L12.2615 16.2924C12.2571 16.29 12.2535 16.2907 12.2527 16.2876L12.244 16.2824C12.2392 16.2799 12.2359 16.2824 12.2348 16.2775L12.2261 16.2723C12.2242 16.2727 12.2223 16.2725 12.2206 16.2716C12.219 16.2707 12.2178 16.2692 12.2173 16.2675C12.2092 16.2657 12.2038 16.2598 12.1957 16.2581L12.1913 16.2557L12.187 16.2532C12.1789 16.2515 12.1745 16.2491 12.1665 16.2474C12.1584 16.2456 12.1584 16.2474 12.1552 16.2474C12.1463 16.246 12.1378 16.2432 12.1299 16.239C12.0796 16.2224 12.0264 16.2148 11.9731 16.2165C11.9731 16.2165 11.9731 15.9164 12.2129 14.7414C12.3226 14.2104 12.4965 13.9321 12.6811 13.6371C12.8188 13.4281 12.9363 13.2077 13.032 12.9786H13.0356C13.1362 12.7181 13.2105 12.4492 13.2575 12.1755C13.4037 12.0216 13.5619 11.9048 13.707 11.884C13.5608 11.9048 13.4073 12.0174 13.2575 12.1755C13.2611 12.1602 13.2611 12.146 13.2644 12.1308C13.2695 12.0937 13.2783 12.0559 13.2834 12.0188C13.5393 10.422 11.729 9.76592 11.729 9.76592C12.0579 9.72572 12.4048 9.79538 12.7158 9.90214C12.7295 9.90775 12.7444 9.91025 12.7593 9.90941C12.7828 9.91544 12.8077 9.91433 12.8305 9.90625C12.8533 9.89817 12.8729 9.88352 12.8865 9.86436C12.892 9.85604 12.9008 9.84668 12.9059 9.83801C12.911 9.82935 12.9201 9.82034 12.9252 9.81202C13.0761 9.83962 13.2243 9.87903 13.3682 9.92986L13.3711 9.93991C13.3713 9.94183 13.372 9.94368 13.3731 9.9453C13.3741 9.94693 13.3756 9.94829 13.3774 9.94927C13.3891 9.96452 13.4442 9.98671 13.5276 10.0165C13.6522 10.0593 13.7742 10.1088 13.8931 10.1645C13.824 10.1453 13.7517 10.1385 13.68 10.1444C13.673 10.1444 13.6712 10.1538 13.68 10.1555C13.7626 10.1676 13.8594 10.2335 13.9413 10.2851C13.959 10.2984 13.9774 10.3106 13.9965 10.3219C14.1427 10.412 14.2812 10.5104 14.4175 10.6099C14.5539 10.7094 14.696 10.8179 14.8287 10.9322C14.8733 10.9714 14.9186 11.014 14.9643 11.0567C15.0159 11.1087 15.071 11.1606 15.1248 11.204C15.1336 11.2116 15.1442 11.2173 15.1556 11.2205C15.1671 11.2237 15.1792 11.2245 15.191 11.2226C15.2029 11.2208 15.2141 11.2165 15.2239 11.2099C15.2337 11.2034 15.2418 11.1948 15.2476 11.1849L15.2925 11.2955V11.2924C15.2746 11.2535 15.2092 11.2768 15.2194 11.3204C15.2316 11.4311 15.2569 11.5402 15.2947 11.6455ZM15.3638 12.6306C15.3443 12.5046 15.3159 12.38 15.2786 12.2576C15.2391 12.139 15.1867 12.0246 15.1222 11.9162C15.1091 11.8944 15.0992 11.8719 15.0857 11.8469C15.0857 11.8434 15.0813 11.8441 15.0824 11.8469C15.1171 11.9605 15.1433 12.0764 15.1606 12.1935C15.1642 12.2212 15.1716 12.2483 15.1752 12.276C15.1789 12.2892 15.1796 12.3069 15.1832 12.3204C15.1832 12.327 15.1832 12.3346 15.1862 12.3446C15.1802 12.3823 15.1766 12.4203 15.1752 12.4583C15.1752 12.4836 15.1712 12.5131 15.1705 12.538C15.1592 12.6273 15.1358 12.7147 15.101 12.7983C15.0283 12.9601 14.9154 13.1028 14.7721 13.2143C14.5206 13.4149 14.2173 13.5491 13.9212 13.6818C13.854 13.7123 13.7831 13.7439 13.7158 13.7747C13.2933 13.9702 12.9285 14.2121 12.6559 14.5896C12.5044 14.8021 12.3918 15.0374 12.3229 15.2855C12.2666 15.4817 12.2005 15.7122 12.2334 15.9188C12.2154 16.0102 12.2115 16.1036 12.2217 16.1961C12.2222 16.1991 12.2238 16.2018 12.2263 16.2037C12.2287 16.2057 12.2318 16.2068 12.235 16.2068C12.2382 16.2068 12.2413 16.2057 12.2438 16.2037C12.2462 16.2018 12.2478 16.1991 12.2484 16.1961C12.2722 16.0867 12.3137 15.9814 12.3715 15.8841C12.4309 15.7914 12.498 15.7033 12.5722 15.6207C12.7282 15.4436 12.9347 15.3147 13.1478 15.2093C13.3609 15.1039 13.5948 15.0474 13.8284 14.9906C14.0762 14.9306 14.3232 14.8672 14.5557 14.75C15.055 14.4894 15.2436 13.957 15.3455 13.4531C15.3993 13.1817 15.4055 12.9038 15.3638 12.6306Z" stroke="#FFF8F6" stroke-width="0.415506" mask="url(#path-86-outside-1_3550_75726)"/>
<path d="M9.104 17.0569C9.104 17.0569 9.11935 17.7293 9.73703 18.1733C10.3547 18.6173 10.1829 17.7006 9.8412 17.4829C9.49946 17.2652 9.0744 16.8493 9.104 17.0569Z" fill="#FFF8F6"/>
<path d="M10.8632 17.7036C11.2082 17.7095 11.543 16.6839 11.0825 16.1834C10.622 15.6829 10.2828 15.7228 10.2225 16.1703C10.1622 16.6177 10.5218 17.697 10.8632 17.7036Z" fill="#FFF8F6"/>
<path d="M9.00587 10.5914C9.14 10.4901 9.27962 10.3945 9.41997 10.302C9.50659 10.2467 9.62647 10.1487 9.7321 10.1332C9.73904 10.1315 9.73721 10.1251 9.72917 10.1234C9.65264 10.1211 9.57624 10.1309 9.5033 10.1525C9.30338 10.2065 9.11624 10.3344 8.95726 10.4418C8.79759 10.5466 8.64513 10.6605 8.50076 10.7828C8.41332 10.8507 8.33169 10.9248 8.25661 11.0043C8.2091 10.9287 8.15537 10.8574 8.10822 10.7815C8.0387 10.6558 7.98098 10.5249 7.93571 10.3901C7.83557 10.0878 7.76727 9.77718 7.73177 9.46268C7.69375 9.16253 7.66269 8.85968 7.63966 8.55818C7.62833 8.43528 7.61262 8.31002 7.60311 8.18679C7.59798 8.11089 7.58711 8.03541 7.57058 7.96091C7.56749 7.94761 7.5627 7.93469 7.55633 7.92242C7.55633 7.91567 7.54719 7.91736 7.54463 7.92242C7.51064 8.00345 7.50808 8.1017 7.50114 8.18712C7.492 8.31812 7.47958 8.4498 7.47848 8.58249C7.47295 8.9054 7.49176 9.22828 7.53477 9.54878C7.57373 9.86984 7.64719 10.1865 7.75406 10.4941C7.83447 10.7156 7.95947 11.0448 8.19265 11.1674C8.19859 11.1768 8.20674 11.1848 8.2165 11.1909C8.22626 11.197 8.23737 11.201 8.24902 11.2026C8.26067 11.2041 8.27256 11.2033 8.2838 11.2001C8.29505 11.1968 8.30537 11.1913 8.31399 11.1839C8.41487 11.0975 8.50441 10.9996 8.60638 10.9138C8.73303 10.7996 8.8664 10.692 9.00587 10.5914Z" fill="#A53C16"/>
<path d="M7.71392 7.97444C7.91421 8.11551 8.13533 8.22261 8.34257 8.34773C8.56444 8.48372 8.77464 8.63612 8.97121 8.80351C9.36325 9.14062 9.71335 9.51914 10.0147 9.93169C10.0191 9.93412 10.026 9.93169 10.0216 9.92996C10.0129 9.91055 10.0074 9.89045 9.99824 9.87104C9.81536 9.41933 9.51334 9.01967 9.12106 8.71027C8.91727 8.54863 8.70035 8.40249 8.47232 8.27321C8.23657 8.14081 7.9906 8.01083 7.71977 7.9585H7.71611C7.70478 7.9585 7.70405 7.96924 7.71392 7.97444Z" fill="#A53C16"/>
<path d="M13.3928 9.90448C13.6835 9.48531 14.0249 9.09981 14.41 8.75585C14.6026 8.58498 14.8088 8.42854 15.0269 8.28793C15.2327 8.15588 15.452 8.04531 15.6483 7.90147C15.65 7.90022 15.6513 7.89844 15.6518 7.89641C15.6523 7.89439 15.6521 7.89226 15.6511 7.89038C15.6502 7.8885 15.6486 7.88699 15.6466 7.8861C15.6446 7.88522 15.6424 7.88502 15.6402 7.88553C15.372 7.93995 15.1285 8.07374 14.895 8.21307C14.6701 8.34577 14.457 8.49553 14.2576 8.66088C13.8861 8.96577 13.6004 9.35346 13.4261 9.78906C13.4093 9.82372 13.3972 9.86393 13.3841 9.89928C13.3822 9.90691 13.3903 9.90864 13.3928 9.90448Z" fill="#A53C16"/>
<path d="M11.2401 16.5155C11.1688 16.7689 11.7883 17.3162 11.7883 17.3162C11.7883 17.3162 12.3921 16.7554 12.319 16.501C12.3144 16.4833 12.3048 16.4671 12.2912 16.4542C12.2772 16.4357 12.2588 16.4205 12.2375 16.4098L12.2331 16.4074L12.2156 16.3973C12.2119 16.3973 12.2108 16.3949 12.2064 16.3925C12.2 16.3883 12.1928 16.3852 12.1852 16.3831C12.1809 16.3807 12.1772 16.3831 12.1765 16.3783C12.1684 16.3765 12.1629 16.3707 12.1549 16.3693C12.1469 16.3679 12.1469 16.3693 12.1425 16.3651C12.1348 16.3633 12.1276 16.3601 12.1213 16.3557C12.1176 16.3557 12.1132 16.354 12.1089 16.3516L12.0847 16.3467C12.0331 16.3355 11.9807 16.3279 11.9279 16.3239C11.6334 16.2951 11.2818 16.3627 11.2401 16.5155Z" fill="#D45224"/>
<path d="M11.8276 18.0744C11.8271 18.0746 11.8266 18.0746 11.8261 18.0746C11.8256 18.0745 11.8251 18.0744 11.8247 18.0742C11.8242 18.0739 11.8238 18.0736 11.8235 18.0732C11.8232 18.0729 11.823 18.0724 11.8229 18.072L11.8123 18.0744H11.809C11.8028 18.0792 11.7973 18.0879 11.7911 18.0928L11.786 18.1014C11.616 18.2678 11.3613 18.2616 11.1343 18.2307C11.0224 18.2182 10.9143 18.1846 10.8164 18.1317C10.7185 18.0788 10.6329 18.0078 10.5645 17.9229C10.4347 17.7645 10.3507 17.5763 10.2502 17.403C10.2509 17.4005 10.2509 17.3979 10.2502 17.3954C10.1467 17.1091 9.96142 16.8429 9.67707 16.697C9.52758 16.6187 9.40843 16.8623 9.56486 16.9247C9.67783 16.9731 9.78273 17.0368 9.87626 17.114C9.9362 17.2245 9.9892 17.3368 10.0429 17.4526L10.0448 17.4595C10.173 17.7396 10.3006 18.0231 10.548 18.222C10.7549 18.3867 11.0067 18.4255 11.2681 18.4158C11.4658 18.4075 11.7658 18.3465 11.8269 18.1385L11.8276 18.0744Z" fill="#FFF8F6"/>
<path opacity="0.2" d="M12.2908 12.4237C12.2866 12.4193 12.2838 12.4139 12.2827 12.4081C12.2764 12.3954 12.2717 12.3822 12.2685 12.3686C12.2583 12.3284 12.2644 12.2861 12.2856 12.25C12.2987 12.225 12.3152 12.2017 12.3346 12.1807C12.3587 12.1571 12.3869 12.136 12.4143 12.1114C12.4687 12.0622 12.5342 12.0105 12.597 11.9634C12.6318 11.937 12.6636 11.9152 12.6979 11.8889L12.748 11.8514L12.7995 11.8168C12.8361 11.7939 12.8664 11.7717 12.8993 11.753C12.9322 11.7343 12.9636 11.7124 12.9936 11.6979C13.0425 11.6683 13.0932 11.6417 13.1456 11.6182L13.1928 11.596L13.2092 11.5884L13.2202 11.5859C13.2235 11.5859 13.2279 11.5859 13.2315 11.5859C13.2352 11.5859 13.2359 11.5884 13.2396 11.5877L13.2414 11.5943C13.2414 11.5943 13.2414 11.5977 13.237 11.606C13.2318 11.6159 13.2282 11.6264 13.2264 11.6372C13.2151 11.665 13.195 11.702 13.1723 11.7433L13.1274 11.815C13.1116 11.8403 13.0908 11.8667 13.0729 11.8927L13.0422 11.9325L13.0078 11.9731C12.9848 12.0001 12.9618 12.0268 12.9347 12.0549C12.8854 12.1097 12.8317 12.162 12.7812 12.2136C12.7542 12.2382 12.7301 12.2618 12.703 12.2864C12.6205 12.3493 12.524 12.3935 12.4209 12.4157C12.3969 12.422 12.3725 12.4265 12.3478 12.4292C12.3384 12.4322 12.3284 12.4335 12.3185 12.433C12.3112 12.4348 12.3068 12.433 12.3032 12.433C12.2944 12.4278 12.29 12.4254 12.2889 12.4219L12.2908 12.4237Z" fill="#DF6033"/>
<path opacity="0.2" d="M11.1262 12.4237C11.1304 12.4193 11.1332 12.4139 11.1343 12.4081C11.1405 12.3954 11.1453 12.3822 11.1485 12.3686C11.1587 12.3284 11.1526 12.2861 11.1314 12.25C11.1183 12.225 11.1018 12.2017 11.0824 12.1807C11.0583 12.1571 11.0301 12.136 11.0027 12.1114C10.9482 12.0622 10.8828 12.0105 10.82 11.9634C10.7852 11.937 10.7534 11.9152 10.7191 11.8889L10.669 11.8514L10.6175 11.8168C10.5809 11.7939 10.5506 11.7717 10.5177 11.753C10.4848 11.7343 10.4534 11.7124 10.4234 11.6979C10.3745 11.6683 10.3237 11.6417 10.2714 11.6182L10.2242 11.596L10.2078 11.5884L10.1968 11.5859C10.1935 11.5859 10.1891 11.5859 10.1855 11.5859C10.1818 11.5859 10.1811 11.5884 10.1774 11.5877L10.1756 11.5943C10.1756 11.5943 10.1756 11.5977 10.18 11.606C10.1852 11.6159 10.1888 11.6264 10.1906 11.6372C10.2019 11.665 10.222 11.702 10.2447 11.7433L10.2896 11.815C10.3053 11.8403 10.3262 11.8667 10.3441 11.8927L10.3748 11.9325L10.4091 11.9731C10.4322 12.0001 10.4552 12.0268 10.4822 12.0549C10.5316 12.1097 10.5853 12.162 10.6358 12.2136C10.6628 12.2382 10.6869 12.2618 10.714 12.2864C10.7965 12.3493 10.8929 12.3935 10.9961 12.4157C11.0201 12.422 11.0445 12.4265 11.0692 12.4292C11.0786 12.4322 11.0886 12.4335 11.0985 12.433C11.1058 12.4348 11.1102 12.433 11.1138 12.433C11.1226 12.4278 11.127 12.4254 11.1281 12.4219L11.1262 12.4237Z" fill="#DF6033"/>
<path opacity="0.6" d="M11.7531 12.4917L11.7801 12.5354C11.7945 12.5563 11.8067 12.5784 11.8167 12.6016C11.8329 12.6293 11.847 12.6581 11.8587 12.6879C11.8715 12.7204 11.8876 12.7523 11.9011 12.7884C11.9146 12.8244 11.9289 12.8639 11.9398 12.9045C11.9627 12.9862 11.98 13.0692 11.9917 13.153C12.0034 13.2357 12.0095 13.3191 12.01 13.4026C12.0137 13.4414 12.0115 13.4805 12.0034 13.5187C11.9939 13.5546 11.9805 13.5894 11.9632 13.6226C11.9455 13.6526 11.9256 13.6813 11.9036 13.7086C11.8824 13.7324 11.8595 13.7548 11.8349 13.7755C11.8156 13.7909 11.7955 13.8054 11.7746 13.8188C11.7589 13.8296 11.749 13.8355 11.749 13.8355L11.7315 13.84C11.7248 13.8409 11.718 13.8401 11.7118 13.8375L11.6851 13.8226C11.6708 13.8115 11.6485 13.7991 11.6248 13.78C11.5997 13.7599 11.5761 13.7381 11.5542 13.7148C11.5054 13.6611 11.4713 13.5968 11.4548 13.5277C11.4467 13.4896 11.4438 13.4507 11.4461 13.4119C11.4461 13.3294 11.4541 13.2452 11.4618 13.1613C11.4723 13.0766 11.4887 12.9927 11.5107 12.91L11.5473 12.7936L11.5473 12.7935C11.5605 12.7589 11.5736 12.7242 11.5875 12.6896C11.6014 12.6549 11.6164 12.6289 11.6277 12.6012C11.6373 12.5774 11.6504 12.5551 11.6664 12.5347L11.6928 12.4924L11.7206 12.4566L11.7531 12.4917Z" fill="#DF6033"/>
<path opacity="0.6" d="M11.6842 12.2341C11.6681 12.2123 11.6543 12.189 11.6429 12.1648C11.6275 12.1363 11.6063 12.102 11.5848 12.0608C11.5756 12.0414 11.5621 12.0199 11.5522 11.997C11.5424 11.9741 11.5292 11.9526 11.5183 11.9277C11.4941 11.8798 11.4751 11.8237 11.4528 11.7682C11.4305 11.7128 11.4093 11.6501 11.3896 11.5904C11.3491 11.4631 11.3156 11.3339 11.2891 11.2033C11.2627 11.0754 11.2441 10.9461 11.2335 10.8161C11.2252 10.7571 11.2243 10.6972 11.231 10.638C11.2362 10.5831 11.2496 10.5292 11.2708 10.4778C11.3062 10.3881 11.3596 10.3057 11.428 10.2352C11.4521 10.2117 11.4759 10.1877 11.5011 10.1676L11.5321 10.1423C11.5832 10.108 11.6447 10.0905 11.7072 10.0924C11.77 10.0909 11.8317 10.1087 11.883 10.143C11.8948 10.15 11.9059 10.1581 11.9159 10.1673C11.9431 10.1876 11.9676 10.2108 11.989 10.2366C12.0581 10.3061 12.1122 10.3879 12.148 10.4772C12.1703 10.5288 12.1839 10.5834 12.1882 10.639C12.1939 10.6986 12.1939 10.7586 12.1882 10.8182C12.1765 10.9426 12.1593 11.0757 12.1345 11.2068C12.1096 11.3378 12.0764 11.4677 12.0391 11.5949C12.0215 11.6563 12 11.7152 11.978 11.7741C11.9596 11.8295 11.9377 11.8838 11.9126 11.9367C11.9028 11.9614 11.8916 11.9856 11.879 12.0091C11.8669 12.0337 11.8574 12.0538 11.8476 12.0743C11.8282 12.1145 11.8074 12.1485 11.7924 12.1783C11.7774 12.2081 11.753 12.2436 11.7503 12.2476C11.7477 12.2516 11.7224 12.2771 11.7224 12.2771L11.6948 12.2476L11.6842 12.2341Z" fill="#DF6033"/>
<path opacity="0.5" d="M13.29 18.0986C13.418 17.9998 13.5327 17.7821 13.5726 17.5651C13.6124 17.3482 13.6226 17.1915 13.7604 17.0868C13.8723 16.9988 14.0587 17.0175 14.116 17.1042C14.1588 17.1655 14.1106 17.2951 14.0378 17.4307C13.9651 17.5662 13.3098 18.1298 13.3098 18.1298L13.29 18.0986Z" fill="#DF6033"/>
<path opacity="0.5" d="M10.2831 18.1113C10.1548 18.0135 10.0367 17.7993 9.99652 17.5799C9.95632 17.3605 9.94206 17.2101 9.80391 17.1041C9.69024 17.0174 9.50676 17.0368 9.45048 17.1221C9.40991 17.1821 9.45669 17.3138 9.53454 17.4486C9.61239 17.5834 10.2725 18.1418 10.2725 18.1418L10.2831 18.1113Z" fill="#DF6033"/>
<path d="M14.017 17.3489C14.023 17.3649 14.0254 17.382 14.0241 17.3989C14.0227 17.4158 14.0177 17.4323 14.0094 17.4473C13.9937 17.4747 13.9755 17.5007 13.9549 17.525C13.9465 17.5333 13.9389 17.5424 13.9322 17.552C13.8529 17.6498 13.7762 17.7437 13.6917 17.8355C13.6056 17.9266 13.5124 18.0115 13.4129 18.0893C13.3103 18.1734 13.2002 18.249 13.0839 18.3152C13.0152 18.3564 12.9416 18.3897 12.8646 18.4147C12.7438 18.4449 12.6164 18.4424 12.497 18.4074C12.4189 18.3852 12.3423 18.3583 12.2678 18.327C12.2473 18.3177 12.2262 18.3098 12.2046 18.3031C12.0972 18.2651 11.9923 18.2212 11.8902 18.1717C11.8533 18.1527 11.8199 18.1281 11.7912 18.099C11.7642 18.1281 11.7325 18.1531 11.6973 18.1728C11.5966 18.2234 11.4926 18.2678 11.3859 18.3055L11.3212 18.3319C11.2462 18.3606 11.1673 18.3904 11.0902 18.413C10.9704 18.4498 10.842 18.4536 10.7199 18.4241C10.6417 18.4031 10.5677 18.3702 10.5006 18.3267C10.3835 18.2613 10.2725 18.1865 10.1688 18.1031C10.0684 18.0263 9.97403 17.9428 9.88625 17.8532C9.80146 17.7628 9.72288 17.6674 9.6443 17.5721C9.63809 17.5628 9.62822 17.5544 9.62201 17.5451C9.5995 17.5223 9.57998 17.4971 9.56389 17.4699C9.5548 17.4551 9.54941 17.4385 9.54814 17.4215C9.54687 17.4044 9.54976 17.3873 9.55658 17.3714C9.56394 17.3485 9.57979 17.3289 9.60122 17.3161C9.62264 17.3034 9.64819 17.2984 9.67317 17.3021C9.70048 17.3069 9.72474 17.3215 9.74079 17.343C9.7541 17.3615 9.76238 17.3828 9.76491 17.4051C9.77173 17.47 9.79131 17.5331 9.82266 17.5912C9.84061 17.6306 9.86531 17.6669 9.89576 17.6986C10.0578 17.8984 10.2557 18.0695 10.4805 18.204C10.5529 18.251 10.6316 18.2885 10.7145 18.3156C10.8108 18.342 10.9128 18.3432 11.0098 18.319C11.0266 18.3158 11.0429 18.3107 11.0584 18.3038C11.2566 18.2372 11.4491 18.1561 11.634 18.0612L11.6366 18.057H11.6402C11.6619 18.0456 11.6808 18.03 11.6958 18.0113C11.7159 17.986 11.7249 17.9543 11.721 17.9229C11.7181 17.8702 11.721 17.8189 11.7166 17.7666C11.7166 17.7416 11.7137 17.7139 11.7144 17.6886V17.6667L11.7057 17.0321V17.0068C11.7054 16.9921 11.7093 16.9776 11.717 16.9649C11.7216 16.9577 11.7275 16.9513 11.7345 16.9462C11.7443 16.9367 11.7572 16.931 11.7711 16.9299C11.786 16.927 11.8016 16.9296 11.8146 16.9372C11.8272 16.9438 11.8377 16.9537 11.8449 16.9656C11.8518 16.9781 11.8555 16.992 11.8555 17.0061V17.6862C11.8555 17.7115 11.8555 17.7399 11.8555 17.7652C11.8555 17.7794 11.8555 17.7905 11.8555 17.8047C11.8564 17.8346 11.8557 17.8646 11.8533 17.8945L11.8563 17.9475L11.8606 17.9645C11.8763 18.0014 11.9046 18.0323 11.941 18.0522L11.9454 18.0546L11.9498 18.0574C12.135 18.1507 12.3279 18.2295 12.5266 18.2931C12.6296 18.3276 12.7412 18.3317 12.8467 18.3048L12.8679 18.2996C12.9504 18.2711 13.0287 18.2329 13.1011 18.186C13.213 18.1197 13.3174 18.0428 13.4129 17.9565C13.5108 17.8701 13.6002 17.7754 13.68 17.6737C13.7527 17.5892 13.7971 17.4862 13.8076 17.3777C13.8083 17.353 13.8179 17.3293 13.8347 17.3104C13.8515 17.2915 13.8745 17.2786 13.9001 17.2737C13.9254 17.2732 13.9502 17.2802 13.9711 17.2937C13.9921 17.3072 14.0081 17.3265 14.017 17.3489Z" fill="#D45224" stroke="#D45224" stroke-width="0.149582"/>
<path fill-rule="evenodd" clip-rule="evenodd" d="M13.025 14.5014C13.3227 14.2082 13.7075 14.0684 14.1047 13.9355C14.4523 13.817 14.8112 13.7002 15.0955 13.469C15.1591 13.4163 15.216 13.3571 15.2652 13.2925C15.2351 13.44 15.1938 13.5852 15.1418 13.7273C15.0564 13.956 14.9461 14.2011 14.7663 14.3791C14.6073 14.5383 14.394 14.6191 14.1759 14.6685C14.0072 14.708 13.8357 14.7289 13.6612 14.753L13.49 14.777C13.2722 14.8098 13.0627 14.879 12.8717 14.9812C12.7347 15.053 12.6102 15.1435 12.5022 15.2496C12.5273 15.1953 12.5563 15.1433 12.585 15.0884C12.7015 14.8746 12.8496 14.677 13.025 14.5014ZM15.112 13.6535C15.1127 13.6466 15.1172 13.6433 15.1196 13.6365L15.1224 13.633C15.1159 13.6398 15.1089 13.6462 15.1013 13.6519L15.103 13.6612L15.1041 13.6674C15.1074 13.6654 15.1098 13.6587 15.112 13.6535Z" fill="#4E1A0A"/>
<path d="M15.112 13.6535C15.1127 13.6466 15.1172 13.6433 15.1196 13.6365L15.1224 13.633C15.1159 13.6398 15.1089 13.6462 15.1013 13.6519L15.103 13.6612L15.1041 13.6674C15.1074 13.6654 15.1098 13.6587 15.112 13.6535Z" fill="#4E1A0A"/>
<path d="M15.0114 13.381C15.361 12.9242 15.3762 12.6551 15.2733 12.201C15.2645 12.7665 15.0465 13.1539 14.5786 13.5603C14.7248 13.5304 14.9284 13.4596 15.0114 13.381Z" fill="#6B2813"/>
<path opacity="0.9" d="M15.273 12.2045C15.3045 12.3307 15.3076 12.4737 15.3183 12.5998C15.3214 12.6209 15.3226 12.6442 15.3219 12.6634C15.3211 12.6826 15.3003 12.7814 15.289 12.837C15.2703 12.9167 15.2404 12.9938 15.2001 13.0663C15.1174 13.2062 14.9996 13.3254 14.8565 13.4138C14.5458 13.6102 14.1742 13.7098 13.8266 13.8283C13.4183 13.9687 13.0574 14.1562 12.7699 14.4726C12.6105 14.6523 12.4842 14.8553 12.396 15.0733C12.325 15.2455 12.2503 15.638 12.2503 15.638C12.2503 15.638 12.2152 15.8035 12.216 15.888C12.2147 15.9009 12.2358 15.9044 12.2407 15.8903C12.2729 15.7934 12.3213 15.7019 12.3842 15.619C12.4478 15.5402 12.5182 15.4664 12.5947 15.3982C12.7591 15.2561 12.9534 15.147 13.1655 15.0775C13.5997 14.9212 14.0755 14.9538 14.5075 14.7852C14.9946 14.5963 15.2188 14.128 15.3606 13.6811C15.4386 13.4389 15.4732 13.1864 15.4628 12.9335C15.4566 12.8179 15.442 12.7028 15.4191 12.589C15.3925 12.4491 15.3354 12.3329 15.2789 12.2003C15.2761 12.201 15.2727 12.2013 15.273 12.2045ZM15.1417 13.7244C15.0566 13.9563 14.9456 14.1981 14.7661 14.3762C14.6106 14.535 14.3977 14.6156 14.1757 14.6656C13.9537 14.7156 13.7209 14.7386 13.4926 14.7706C13.2747 14.8031 13.0651 14.8723 12.8743 14.9747C12.7369 15.0461 12.6123 15.1366 12.5048 15.2432C12.5303 15.1889 12.5589 15.1337 12.5879 15.0819C12.7047 14.8696 12.8522 14.6732 13.0263 14.498C13.3278 14.2042 13.71 14.0677 14.1072 13.9352C14.4549 13.8163 14.8125 13.6965 15.0971 13.4656C15.1605 13.4126 15.2174 13.3533 15.2669 13.2888C15.2362 13.4366 15.1943 13.5821 15.1417 13.7244Z" fill="#CF400C"/>
<path fill-rule="evenodd" clip-rule="evenodd" d="M10.4486 14.5014C10.1509 14.2082 9.76618 14.0684 9.36894 13.9355C9.02134 13.817 8.66243 13.7002 8.3781 13.469C8.31452 13.4163 8.25759 13.3571 8.2084 13.2925C8.23858 13.44 8.27981 13.5852 8.3318 13.7273C8.41722 13.956 8.52756 14.2011 8.70733 14.3791C8.86635 14.5383 9.07962 14.6191 9.29778 14.6685C9.46644 14.708 9.63792 14.7289 9.81247 14.753L9.98361 14.777C10.2015 14.8098 10.411 14.879 10.602 14.9812C10.7389 15.053 10.8634 15.1435 10.9714 15.2496C10.9463 15.1953 10.9173 15.1433 10.8887 15.0884C10.7722 14.8746 10.6241 14.677 10.4486 14.5014ZM8.36161 13.6535C8.36089 13.6466 8.35644 13.6433 8.35403 13.6365L8.35127 13.633C8.3577 13.6398 8.36476 13.6462 8.37236 13.6519L8.37061 13.6612L8.36955 13.6674C8.36627 13.6654 8.36386 13.6587 8.36161 13.6535Z" fill="#4E1A0A"/>
<path d="M8.36161 13.6535C8.36089 13.6466 8.35644 13.6433 8.35403 13.6365L8.35127 13.633C8.3577 13.6398 8.36476 13.6462 8.37236 13.6519L8.37061 13.6612L8.36955 13.6674C8.36627 13.6654 8.36386 13.6587 8.36161 13.6535Z" fill="#4E1A0A"/>
<path d="M8.46421 13.381C8.11459 12.9242 8.09943 12.6551 8.20233 12.201C8.21111 12.7665 8.42906 13.1539 8.89695 13.5603C8.7508 13.5304 8.5472 13.4596 8.46421 13.381Z" fill="#6B2813"/>
<path opacity="0.9" d="M8.20156 12.2045C8.17007 12.3307 8.16699 12.4737 8.15631 12.5998C8.15321 12.6209 8.15196 12.6442 8.15274 12.6634C8.15353 12.6826 8.17433 12.7814 8.18562 12.837C8.20435 12.9167 8.23424 12.9938 8.27452 13.0663C8.35716 13.2062 8.47504 13.3254 8.61814 13.4138C8.92885 13.6102 9.3004 13.7098 9.64801 13.8283C10.0563 13.9687 10.4173 14.1562 10.7047 14.4726C10.8641 14.6523 10.9904 14.8553 11.0786 15.0733C11.1496 15.2455 11.2243 15.638 11.2243 15.638C11.2243 15.638 11.2595 15.8035 11.2586 15.888C11.26 15.9009 11.2388 15.9044 11.2339 15.8903C11.2017 15.7934 11.1533 15.7019 11.0905 15.619C11.0268 15.5402 10.9564 15.4664 10.8799 15.3982C10.7155 15.2561 10.5212 15.147 10.3091 15.0775C9.8749 14.9212 9.39909 14.9538 8.96706 14.7852C8.47998 14.5963 8.25578 14.128 8.11404 13.6811C8.03599 13.4389 8.00143 13.1864 8.01176 12.9335C8.01796 12.8179 8.03258 12.7028 8.05552 12.589C8.08215 12.4491 8.13925 12.3329 8.19566 12.2003C8.19847 12.201 8.20191 12.2013 8.20156 12.2045ZM8.33293 13.7244C8.418 13.9563 8.52903 14.1981 8.70846 14.3762C8.86403 14.535 9.07693 14.6156 9.29891 14.6656C9.52089 14.7156 9.75369 14.7386 9.98198 14.7706C10.1999 14.8031 10.4095 14.8723 10.6003 14.9747C10.7377 15.0461 10.8623 15.1366 10.9698 15.2432C10.9443 15.1889 10.9157 15.1337 10.8867 15.0819C10.7699 14.8696 10.6224 14.6732 10.4483 14.498C10.1468 14.2042 9.76459 14.0677 9.36739 13.9352C9.01975 13.8163 8.66211 13.6965 8.37748 13.4656C8.31414 13.4126 8.25723 13.3533 8.20774 13.2888C8.23844 13.4366 8.28027 13.5821 8.33293 13.7244Z" fill="#CF400C"/>
<path opacity="0.5" d="M14.3254 15.6797C14.138 15.7795 14.1669 15.7464 13.7732 16.0097C13.7708 16.0102 13.7695 16.0081 13.77 16.0059C13.8698 15.7896 14.0528 15.6782 14.2387 15.5483C14.4145 15.4257 14.6196 15.322 14.8473 15.2142C14.9166 15.1731 15.1132 15.1203 15.23 15.0052C15.23 15.0052 15.1672 15.1666 15.1958 15.259C15.2243 15.3514 15.2247 15.4119 15.2247 15.4119C15.2247 15.4119 15.1314 15.3969 14.8863 15.4664C14.6938 15.5209 14.5018 15.5857 14.3254 15.6797Z" fill="#DF6033"/>
<path d="M14.4844 15.9868C14.3421 16.0245 14.3673 16.0072 14.0588 16.121C14.0571 16.121 14.0566 16.1194 14.0574 16.1181C14.1623 15.9925 14.3038 15.9467 14.4505 15.8894C14.5891 15.8353 14.7438 15.7978 14.9143 15.7607C14.9676 15.744 15.1076 15.7382 15.2057 15.6805C15.2057 15.6805 15.1351 15.7759 15.1375 15.8398C15.1398 15.9037 15.1292 15.9429 15.1292 15.9429C15.1292 15.9429 15.07 15.9198 14.8949 15.9295C14.7574 15.9371 14.6184 15.9514 14.4844 15.9868Z" fill="#DF6033"/>
<path opacity="0.5" d="M9.15409 15.6797C9.34152 15.7795 9.31255 15.7464 9.70628 16.0097C9.70869 16.0102 9.70995 16.0081 9.70946 16.0059C9.60973 15.7896 9.42672 15.6782 9.24079 15.5483C9.06503 15.4257 8.85987 15.322 8.63215 15.2142C8.56289 15.1731 8.3663 15.1203 8.24948 15.0052C8.24948 15.0052 8.3123 15.1666 8.28372 15.259C8.25514 15.3514 8.25483 15.4119 8.25483 15.4119C8.25483 15.4119 8.34808 15.3969 8.59316 15.4664C8.78567 15.5209 8.97767 15.5857 9.15409 15.6797Z" fill="#DF6033"/>
<path d="M8.99605 15.9868C9.13833 16.0245 9.11317 16.0072 9.42169 16.121C9.42338 16.121 9.42383 16.1194 9.42311 16.1181C9.31813 15.9925 9.17669 15.9467 9.03001 15.8894C8.89138 15.8353 8.73663 15.7978 8.56617 15.7607C8.51283 15.744 8.37291 15.7382 8.27473 15.6805C8.27473 15.6805 8.34539 15.7759 8.343 15.8398C8.34062 15.9037 8.35128 15.9429 8.35128 15.9429C8.35128 15.9429 8.41047 15.9198 8.58555 15.9295C8.72308 15.9371 8.86211 15.9514 8.99605 15.9868Z" fill="#DF6033"/>
<path fill-rule="evenodd" clip-rule="evenodd" d="M15.8148 13.0509C15.8036 12.7365 15.7537 12.4244 15.6661 12.121C15.6526 12.0707 15.6347 12.017 15.6175 11.9685C15.6376 11.9314 15.6683 11.8915 15.6833 11.8627C15.7271 11.7879 15.7721 11.7161 15.8159 11.6413C15.9187 11.4697 16.0066 11.2905 16.0787 11.1054C16.274 10.5972 16.4038 10.0685 16.4654 9.53081C16.5346 8.92667 16.5135 8.31631 16.4029 7.71774C16.3627 7.5129 16.2973 7.25676 16.0999 7.13996C15.8846 7.01345 15.6412 7.06163 15.4238 7.15036C15.1953 7.24151 14.9925 7.36941 14.79 7.50077C14.4975 7.68951 14.2212 7.89986 13.9636 8.12985C13.4531 8.58227 13.0288 9.11483 12.7093 9.70411C11.9008 9.53081 11.4531 9.56547 10.6775 9.72456C10.3455 9.14065 9.90918 8.61575 9.38805 8.17318C9.12608 7.94763 8.84613 7.7416 8.55071 7.55692C8.34604 7.42764 8.1388 7.30286 7.90854 7.21898C7.68925 7.13615 7.44072 7.09282 7.23056 7.22245C7.03612 7.34099 6.97472 7.60371 6.93817 7.80474C6.75774 8.94537 6.89638 10.1109 7.34021 11.1848C7.41833 11.3677 7.51031 11.5451 7.61542 11.7154C7.66184 11.79 7.70753 11.8614 7.75029 11.9366C7.77002 11.9678 7.79853 12.0038 7.8201 12.0405C7.80365 12.0912 7.78793 12.1445 7.77478 12.1948C7.69691 12.5005 7.65354 12.8131 7.64539 13.1275C7.63961 13.4385 7.66902 13.7492 7.73311 14.0543C7.79524 14.3541 7.92243 14.631 8.02002 14.9208C8.0785 15.0962 8.12967 15.2768 8.17974 15.458C8.27842 15.8098 8.32594 16.0095 8.39903 16.3592L8.40378 16.3758C8.42169 16.4431 8.43558 16.5075 8.45349 16.5748L8.47177 16.642C8.59603 17.0871 8.75027 17.5175 8.99296 17.9106L9.10553 18.0766C9.16069 18.1545 9.21997 18.2297 9.28316 18.3019C9.60333 18.6641 10.0141 18.9656 10.4396 19.2055L10.9063 19.4394C11.0478 19.4994 11.1929 19.5515 11.3409 19.5954C11.4272 19.6212 11.5156 19.6403 11.6051 19.6526C11.6636 19.6635 11.7232 19.6683 11.7827 19.6672H11.7908C11.7926 19.6664 11.7945 19.666 11.7965 19.666C11.7984 19.666 11.8003 19.6664 11.8021 19.6672C11.8626 19.6682 11.9231 19.6621 11.9819 19.6488C12.0722 19.634 12.161 19.6124 12.2477 19.5843C12.5137 19.4996 12.7695 19.3885 13.0108 19.2526C13.4271 19.0194 13.8288 18.7327 14.1548 18.3885L14.3335 18.1844C14.5893 17.861 14.7615 17.5044 14.8898 17.1266L14.9018 17.0877C14.9534 16.9287 15.0009 16.7703 15.0437 16.606L15.0886 16.4237C15.2012 15.9454 15.2889 15.4591 15.4212 14.9977L15.5184 14.6879C15.5988 14.4539 15.688 14.2248 15.7319 13.9815C15.8012 13.6759 15.829 13.3632 15.8148 13.0509ZM15.3763 14.3486C15.3704 14.368 15.3605 14.3881 15.3547 14.4075C15.2761 14.6196 15.2085 14.8328 15.1507 15.0508C15.0977 15.2463 15.0491 15.4438 15.0045 15.64C14.9779 15.7506 14.9552 15.8632 14.9285 15.9734L14.8774 16.2122C14.7432 16.8063 14.5766 17.4194 14.2158 17.9289C13.9125 18.3567 13.4666 18.7043 13.0097 18.9722C12.771 19.1174 12.516 19.2369 12.2495 19.3285C12.2129 19.3403 12.183 19.3479 12.1519 19.359L12.1201 19.367L12.0565 19.3822H12.0528L12.0163 19.3906L11.9348 19.4103C11.8924 19.4207 11.85 19.4311 11.8102 19.437C11.6601 19.4096 11.5118 19.374 11.3661 19.3303C11.0972 19.2441 10.8397 19.1288 10.5986 18.9868C10.1395 18.7261 9.68483 18.3896 9.36941 17.9681C8.99698 17.4683 8.82118 16.8562 8.66913 16.267C8.64647 16.1831 8.62856 16.1017 8.60663 16.0209C8.57959 15.9058 8.54852 15.7918 8.52147 15.6767C8.4714 15.4778 8.41731 15.2764 8.36029 15.0792C8.29852 14.8768 8.23237 14.6754 8.15233 14.4726C8.13259 14.4272 8.11578 14.3811 8.10006 14.334C7.94948 13.8816 7.88681 13.407 7.91512 12.9334C7.93033 12.6647 7.96699 12.3975 8.02477 12.1341C8.08069 11.8811 8.17097 11.6375 8.2342 11.3858C8.24443 11.3404 8.17864 11.3207 8.1611 11.3567C8.05583 11.5006 7.97115 11.6572 7.90928 11.8222C7.87602 11.7407 7.83618 11.6645 7.8095 11.6066C7.68543 11.3389 7.58018 11.0636 7.49444 10.7827C7.1942 9.85103 7.10821 8.86908 7.24226 7.90317C7.26638 7.73992 7.29306 7.47581 7.49042 7.42452C7.58618 7.4013 7.70241 7.44115 7.78976 7.47027C7.91194 7.51428 8.02923 7.56966 8.1399 7.6356C8.39431 7.77934 8.6385 7.93878 8.87088 8.11287C9.18946 8.35335 9.48496 8.62012 9.75391 8.91005C10.0368 9.21714 10.2718 9.55715 10.5262 9.88538C10.5396 9.90505 10.5595 9.92001 10.5827 9.92796C10.6059 9.93591 10.6313 9.93642 10.6548 9.9294C10.6697 9.93082 10.6848 9.92843 10.6983 9.92247C11.4684 9.74293 11.9074 9.71867 12.7147 9.90237C12.7289 9.90621 12.7435 9.90865 12.7582 9.90965C12.7825 9.91539 12.808 9.91407 12.8314 9.90584C12.8548 9.89762 12.875 9.88287 12.8895 9.86355C12.9033 9.84587 12.9165 9.82473 12.9308 9.80705C13.1621 9.48957 13.3799 9.1648 13.6409 8.87123C13.9026 8.57489 14.1927 8.30222 14.5075 8.05672C14.7359 7.87964 14.9764 7.71708 15.2275 7.57009C15.336 7.50172 15.4513 7.44368 15.5718 7.39679C15.661 7.36421 15.7743 7.32262 15.8711 7.34549C16.0689 7.39402 16.1025 7.65743 16.1306 7.8193C16.1708 8.07402 16.1959 8.33068 16.2059 8.58806C16.236 9.30301 16.146 10.0179 15.9395 10.7061C15.862 10.9899 15.7628 11.2679 15.6427 11.538C15.6164 11.5941 15.5769 11.6718 15.5466 11.7543C15.4825 11.5906 15.395 11.4361 15.2867 11.295C15.2688 11.2565 15.2034 11.2794 15.2136 11.3231C15.2809 11.5716 15.377 11.8166 15.4369 12.0669C15.503 12.3282 15.5457 12.5943 15.5645 12.8623C15.5941 13.3656 15.5458 13.8709 15.3763 14.3486Z" fill="#DF6033"/>
<path d="M14.4506 10.4554C14.6119 10.5616 14.7673 10.6755 14.9163 10.7968C15.0059 10.8647 15.0902 10.9387 15.1685 11.0183C15.2149 10.9392 15.2675 10.8689 15.3095 10.7874C15.3759 10.6566 15.4315 10.5212 15.4758 10.3823C15.5678 10.0698 15.628 9.74969 15.6557 9.42633C15.6886 9.11439 15.7108 8.80488 15.7288 8.49259C15.7361 8.36573 15.7503 8.23714 15.7587 8.11341C15.7635 8.0479 15.7675 7.97893 15.7796 7.91169C15.7785 7.90173 15.7798 7.89168 15.7832 7.88223C15.7891 7.84757 15.7331 7.85138 15.6403 7.88465C15.6509 7.88188 15.6546 7.8954 15.6483 7.9006C15.4532 8.04443 15.2342 8.15465 15.027 8.28706C14.8078 8.42639 14.6013 8.58291 14.4097 8.75497C14.0242 9.09874 13.6825 9.48413 13.3914 9.90325C13.3889 9.90776 13.3821 9.90616 13.384 9.89854C13.396 9.85972 13.4216 9.82916 13.4347 9.79381C13.4079 9.83735 13.38 9.87972 13.3721 9.9296C13.3721 9.93272 13.3721 9.93722 13.375 9.93965L13.3776 9.9497C13.3984 9.98436 13.6334 10.0384 13.8922 10.1649C14.091 10.2135 14.2851 10.3452 14.4506 10.4554Z" fill="#F1A589"/>
<path d="M15.6463 10.4425C15.7411 10.1323 15.8052 9.81441 15.8376 9.49286C15.8712 9.17199 15.8823 8.84934 15.8709 8.52705C15.8684 8.39549 15.8514 8.26392 15.8379 8.13135C15.8298 8.04634 15.8248 7.94648 15.789 7.86822C15.789 7.86147 15.7805 7.86316 15.7781 7.86822C15.7695 7.89006 15.7632 7.91266 15.7593 7.93569C15.7476 8.00113 15.7437 8.06826 15.7391 8.13202C15.7285 8.2565 15.7171 8.37761 15.7101 8.50107C15.6931 8.80468 15.6714 9.10593 15.6392 9.40988C15.6125 9.7246 15.5541 10.0362 15.4649 10.3403C15.4232 10.4759 15.3692 10.6078 15.3038 10.7346C15.263 10.8139 15.2127 10.8854 15.1671 10.9593C15.0934 10.8798 15.0115 10.8076 14.9227 10.7437C14.7793 10.6246 14.6286 10.5136 14.4714 10.4114C14.3109 10.3042 14.1197 10.1753 13.9199 10.1277C13.853 10.1093 13.7831 10.1028 13.7137 10.1085C13.707 10.1085 13.7052 10.1176 13.7137 10.119C13.8158 10.1325 13.9369 10.2283 14.0169 10.2819C14.154 10.3706 14.2929 10.4654 14.425 10.5622C14.5571 10.6591 14.6949 10.7646 14.8235 10.876C14.9227 10.9596 15.0119 11.0598 15.1111 11.1438C15.1197 11.1512 15.13 11.1567 15.1411 11.1598C15.1523 11.1629 15.164 11.1636 15.1754 11.1618C15.1869 11.16 15.1978 11.1558 15.2073 11.1495C15.2168 11.1432 15.2247 11.1349 15.2305 11.1253C15.4586 10.9967 15.5744 10.6655 15.6463 10.4425Z" fill="#A53C16"/>
<defs>
<linearGradient id="paint0_linear_3550_75726" x1="11.4732" y1="23.6506" x2="11.4732" y2="3.30566" gradientUnits="userSpaceOnUse">
<stop stop-color="#F8BCCA"/>
<stop offset="1" stop-color="#FFE8D3"/>
</linearGradient>
</defs>
</svg>
