<svg width="18" height="16" viewBox="0 0 18 16" fill="none"
    xmlns="http://www.w3.org/2000/svg">
    <path d="M18 2.2549C17.8796 2.50909 17.6555 2.83016 17.3278 3.21811C17 3.60605 16.5953 3.9472 16.1137 4.24151C16.1271 4.34855 16.1371 4.44887 16.1438 4.54252C16.1958 5.98432 15.8504 7.48022 15.3712 8.72647C14.4425 11.0436 13.0193 12.9084 10.9866 14.1746C8.8669 15.3905 6.39823 15.6491 4.12374 15.4288C2.61375 15.2554 1.12549 14.7623 0 13.8335C2.0585 14.0795 3.97957 13.3793 5.49832 12.2482C3.81124 12.2909 2.58546 11.0705 2.0067 9.65956C2.26759 9.72794 2.54052 9.71969 2.78931 9.69971C3.09555 9.67094 3.38625 9.64222 3.67226 9.57932C2.5965 9.23224 1.65522 8.5942 1.1639 7.63282C0.8757 7.02367 0.745575 6.44359 0.7425 5.78666C1.24657 6.05206 1.85292 6.31072 2.40806 6.28832C1.56968 5.57812 0.897555 4.67047 0.772605 3.62945C0.69372 2.76146 0.91092 1.96913 1.22412 1.23146C2.47822 2.60974 3.88534 3.74399 5.50839 4.44217C6.61836 4.8967 7.72518 5.13977 8.86961 5.1445C8.7375 4.12232 8.84022 3.13375 9.32112 2.29499C9.88707 1.39322 10.7128 0.870021 11.6389 0.609366C12.9639 0.269586 14.2563 0.749541 15.0703 1.67291C15.9481 1.5781 16.789 1.18867 17.4583 0.789966C17.1739 1.65112 16.6201 2.50735 15.8128 2.91706C16.5815 2.77474 17.315 2.54717 18 2.2549Z" fill="#BCC3CF"/>
</svg>
