<svg width="17" height="19" viewBox="0 0 17 19" fill="none"
    xmlns="http://www.w3.org/2000/svg">
    <path d="M1.28125 18.6875C1.1072 18.6875 0.940282 18.6184 0.817211 18.4953C0.694141 18.3722 0.625 18.2053 0.625 18.0312C0.625 17.8572 0.694141 17.6903 0.817211 17.5672C0.940282 17.4441 1.1072 17.375 1.28125 17.375H2.59375V16.0625C2.59348 14.9481 2.90847 13.8565 3.50233 12.9135C4.09619 11.9706 4.94469 11.2149 5.94981 10.7337C6.33044 10.5513 6.53125 10.2389 6.53125 9.95938V9.04063C6.53125 8.76106 6.32913 8.44869 5.94981 8.26625C4.94469 7.7851 4.09619 7.02941 3.50233 6.08648C2.90847 5.14355 2.59348 4.05185 2.59375 2.9375V1.625H1.28125C1.1072 1.625 0.940282 1.55586 0.817211 1.43279C0.694141 1.30972 0.625 1.1428 0.625 0.96875C0.625 0.794702 0.694141 0.627782 0.817211 0.504711C0.940282 0.38164 1.1072 0.3125 1.28125 0.3125H15.7188C15.8928 0.3125 16.0597 0.38164 16.1828 0.504711C16.3059 0.627782 16.375 0.794702 16.375 0.96875C16.375 1.1428 16.3059 1.30972 16.1828 1.43279C16.0597 1.55586 15.8928 1.625 15.7188 1.625H14.4062V2.9375C14.4065 4.05185 14.0915 5.14355 13.4977 6.08648C12.9038 7.02941 12.0553 7.7851 11.0502 8.26625C10.6696 8.44869 10.4688 8.76106 10.4688 9.04063V9.95938C10.4688 10.2389 10.6709 10.5513 11.0502 10.7337C12.0553 11.2149 12.9038 11.9706 13.4977 12.9135C14.0915 13.8565 14.4065 14.9481 14.4062 16.0625V17.375H15.7188C15.8928 17.375 16.0597 17.4441 16.1828 17.5672C16.3059 17.6903 16.375 17.8572 16.375 18.0312C16.375 18.2053 16.3059 18.3722 16.1828 18.4953C16.0597 18.6184 15.8928 18.6875 15.7188 18.6875H1.28125ZM3.90625 1.625V2.9375C3.90625 3.64231 4.06375 4.30906 4.34856 4.90625H12.6514C12.9349 4.30906 13.0938 3.64231 13.0938 2.9375V1.625H3.90625ZM7.84375 9.95938C7.84375 10.8794 7.21637 11.5816 6.51681 11.9176C5.73495 12.2918 5.07491 12.8796 4.61297 13.6131C4.15102 14.3465 3.90601 15.1957 3.90625 16.0625C3.90625 16.0625 5.04287 14.3576 7.84375 14.12V9.95938ZM9.15625 9.95938V14.12C11.9571 14.3576 13.0938 16.0625 13.0938 16.0625C13.094 15.1957 12.849 14.3465 12.387 13.6131C11.9251 12.8796 11.265 12.2918 10.4832 11.9176C9.78362 11.5816 9.15625 10.8807 9.15625 9.96069V9.95938Z" fill="black"/>
</svg>
